<svg id="Logo_Three" data-name="Logo Three" xmlns="http://www.w3.org/2000/svg" xmlns:xlink="http://www.w3.org/1999/xlink" width="89.283" height="107.617" viewBox="0 0 89.283 107.617">
  <defs>
    <clipPath id="clip-path">
      <rect id="Rectangle_74" data-name="Rectangle 74" width="89.283" height="107.617" fill="#fff"/>
    </clipPath>
    <clipPath id="clip-path-2">
      <path id="Path_366" data-name="Path 366" d="M43.832,0a4.159,4.159,0,0,0-.873,8.226h-.11c-1.654,5.871-6.1,13.3-12.7,16.881C27.331,26.382,22.145,22.984,19.428,20a2.488,2.488,0,0,0,.668-1.713,2.556,2.556,0,0,0-5.111,0,2.571,2.571,0,0,0,2.564,2.564,1.17,1.17,0,0,0,.334-.031l.957,6.173c-4.462-.986-9.012-3.974-11.5-5.9A3.169,3.169,0,0,0,7.6,19.845a3.109,3.109,0,1,0-3.11,3.108,3.39,3.39,0,0,0,.9-.12c.12.136.256.3.393.485,2.29,2.973,9.251,12.33,10.663,21.886H29.865a15.182,15.182,0,0,1,13.893-9.07h.151A15.186,15.186,0,0,1,57.8,45.2H71.225c1.41-9.556,8.371-18.914,10.66-21.886.139-.181.275-.349.4-.485a3.373,3.373,0,0,0,.894.12,3.109,3.109,0,1,0-3.111-3.108,3.189,3.189,0,0,0,.257,1.244c-2.488,1.925-7.038,4.913-11.5,5.9l.957-6.173a1.174,1.174,0,0,0,.334.031,2.556,2.556,0,1,0-2.549-2.564A2.508,2.508,0,0,0,68.235,20c-2.714,2.988-7.9,6.386-10.72,5.111-6.6-3.579-11.043-11.01-12.7-16.881H44.7A4.159,4.159,0,0,0,43.832,0Z" transform="translate(-1.382)" fill="#fff"/>
    </clipPath>
    <clipPath id="clip-path-3">
      <path id="Path_367" data-name="Path 367" d="M15.016,43.6v7.65h4.5a22.925,22.925,0,0,0,3.857,9.8l-3.06,3.06,5.4,5.4,2.979-2.981a23.251,23.251,0,0,0,9.87,4.191V74.87h7.646V70.743a22.811,22.811,0,0,0,9.9-4.129l2.965,2.966,5.4-5.418-3-3a23.124,23.124,0,0,0,3.936-9.831h4.414v-7.65H65.3l-7.95-.017a16.421,16.421,0,0,1,.3,3.075,15.172,15.172,0,1,1-30.344,0,15.55,15.55,0,0,1,.318-3.124L19.64,43.6Z" transform="translate(-15.016 -43.603)" fill="#fff"/>
    </clipPath>
  </defs>
  <text id="G" transform="translate(34.127 60.282)" fill="#fff" font-size="26" font-family="OpenSans, Open Sans"><tspan x="0" y="0">G</tspan></text>
  <g id="Group_459" data-name="Group 459" transform="translate(0 0)">
    <g id="Group_458" data-name="Group 458" clip-path="url(#clip-path)">
      <path id="Path_358" data-name="Path 358" d="M0,87.669a7.22,7.22,0,0,1,7.474-7.645c2.649,0,5.04.32,5.04,2.627,0,1.6-.983,1.879-1.41,1.879,0-2.092-.471-3.481-3.1-3.481-3.994,0-6.258,3.053-6.258,6.62a6.017,6.017,0,0,0,6.043,6.386c1.858,0,2.926-.448,2.926-1.623V90.062c0-.513-.149-1.132-1.26-1.132H8.521v-.684h5.467v.684h-.961c-.384,0-.769.341-.769,1.025v2.563c0,.49,0,1.623.79,1.623h.342v.641H12.108c-2.263,0-2.456.341-4.783.341A7.145,7.145,0,0,1,0,87.669" transform="translate(0 8.373)" fill="#fff"/>
      <path id="Path_359" data-name="Path 359" d="M16.166,90.139a1.361,1.361,0,0,1-.256-.726c0-.663.982-.663,1.879-.663h2.606c.448,0,.662-.128.662-.577,0-1.794-.94-3.46-3.032-3.46-2.5,0-3.652,2.35-3.652,4.7,0,2.135,1.366,4.293,3.5,4.293a3.567,3.567,0,0,0,3.354-1.88,1.117,1.117,0,0,1,.662.812c0,.939-1.217,2.007-4.015,2.007-3.524,0-4.975-2.84-4.975-5.232,0-3.161,1.751-5.638,5.19-5.638a4.2,4.2,0,0,1,4.378,4.378c0,1.559-.534,1.559-1.815,1.559-3.332,0-3.8,0-4.485.427" transform="translate(1.35 8.765)" fill="#fff"/>
      <path id="Path_360" data-name="Path 360" d="M32.8,93.833v.555H31.708c-1.709,0-1.751-1.174-1.751-1.772V89.348H28.569c-2.627,0-4.121.6-4.121,2.327a1.926,1.926,0,0,0,2.007,1.986,2.4,2.4,0,0,0,2.029-.961.739.739,0,0,1,.447.6c0,.447-.213,1.238-2.541,1.238-1.324,0-3.439-.727-3.439-2.883,0-2.627,2.521-3.226,5.638-3.226h1.368v-1c0-.961-.043-2.734-2.414-2.734a2.406,2.406,0,0,0-2.691,2.457,1.072,1.072,0,0,1-1.046-1.132c0-1.3,1.6-2.242,3.737-2.242,2.35,0,3.844.9,3.844,3.652v4.805c0,1,.277,1.6,1.089,1.6Z" transform="translate(2.402 8.765)" fill="#fff"/>
      <path id="Path_361" data-name="Path 361" d="M39.622,85.975c0,.534-.3,1.174-.919,1.174a.6.6,0,0,1-.577-.277,1.545,1.545,0,0,0,.256-.79,1.158,1.158,0,0,0-1.259-1.239c-1.559,0-2.542,1.986-2.542,4.187v3.5c0,.6.171,1.281.94,1.281h.32v.556H31.636v-.556h.577c.79,0,.96-.727.96-1.153V86.145c0-1-.49-1.3-1.046-1.3h-.49v-.555h1.516c.918,0,1.366.513,1.431,1.43a3.066,3.066,0,0,1,2.627-1.751c1.751,0,2.414.9,2.414,2.007" transform="translate(3.31 8.785)" fill="#fff"/>
      <path id="Path_362" data-name="Path 362" d="M55.688,93.9v.128c0,.6-.448.876-1.26.876-1.11,0-1.6-.961-2.306-2.35-.9-1.815-2.327-4.7-4.847-4.7-.769,0-1.411.149-1.411.6v4.613c0,.384.214,1.046.855,1.046h.706v.641H42.618v-.641h.62a1.113,1.113,0,0,0,1.089-1.046V81.9c0-.534-.384-.833-.961-.833h-.748v-.769h4.656v.769H46.7a.76.76,0,0,0-.834.833v4.847h1.153a3.721,3.721,0,0,0,3.076-1.665c.684-.94,1.922-3.054,1.965-3.161a1.362,1.362,0,0,0,.17-.6c0-.235-.128-.384-.534-.405h-.32v-.62h4.078v.62h-.32c-.748,0-1.26.7-1.644,1.323-.62.961-2.755,4.848-4.143,4.912a5.918,5.918,0,0,1,3.418,3.268c1.131,2.327,2.092,3.481,2.925,3.481" transform="translate(4.459 8.401)" fill="#fff"/>
      <path id="Path_363" data-name="Path 363" d="M59.928,94.22v.556H55.187V94.22H55.7a1.12,1.12,0,0,0,1.153-1.174V86.362a.978.978,0,0,0-1.088-1.111h-.513V84.7h1.474c1.216,0,1.537.62,1.537,1.666v6.684a1.162,1.162,0,0,0,1.153,1.174ZM57.493,82.026a.886.886,0,1,1,0-1.751c.62,0,1.046.32,1.046.9,0,.555-.469.854-1.046.854" transform="translate(5.774 8.399)" fill="#fff"/>
      <path id="Path_364" data-name="Path 364" d="M71.727,93.819v.555H70.36c-1.153,0-1.624-.9-1.624-1.9V87.967c0-2.179-.94-3.032-2.5-3.032-1.837,0-3.288,1.623-3.288,4.312v3.5c0,.513.235,1.068.833,1.068h.426v.555H60v-.555h.556a1,1,0,0,0,.982-.94V85.959c0-.492-.149-1.153-1.046-1.153H60v-.513h1.41c1.238,0,1.474.727,1.474,1.56a4.175,4.175,0,0,1,3.567-1.944c2.563,0,3.716,1.538,3.716,3.567v4.976a1.253,1.253,0,0,0,1.259,1.366Z" transform="translate(6.278 8.779)" fill="#fff"/>
      <path id="Path_365" data-name="Path 365" d="M81.908,84.266v.555h-.49c-.876,0-1.218.363-1.218,1.581v7.5c0,2.627-1.474,4.912-4.591,4.912-2.883,0-3.887-1.26-3.887-2.008a1.172,1.172,0,0,1,1.132-1.153c0,.983.9,2.2,2.755,2.2,2.092,0,3.2-1.644,3.2-3.822V88.879c0-2.114-1.131-3.738-3.309-3.738-2.435,0-3.5,2.05-3.5,4.23,0,2.477,1.731,3.907,3.226,3.907a2.62,2.62,0,0,0,1.943-.662.638.638,0,0,1,.427.62c0,.577-.663,1.025-2.329,1.025a4.771,4.771,0,0,1-4.783-4.933,4.819,4.819,0,0,1,5.04-5.148,3.7,3.7,0,0,1,3.287,1.56v-.256c0-.918.621-1.217,1.5-1.217Z" transform="translate(7.375 8.807)" fill="#fff"/>
    </g>
  </g>
  <g id="Group_461" data-name="Group 461" transform="translate(1.527)">
    <g id="Group_460" data-name="Group 460" clip-path="url(#clip-path-2)">
      <rect id="Rectangle_75" data-name="Rectangle 75" width="84.901" height="45.204" transform="translate(0 0)" fill="#fff"/>
    </g>
  </g>
  <g id="Group_463" data-name="Group 463" transform="translate(16.587 48.165)">
    <g id="Group_462" data-name="Group 462" clip-path="url(#clip-path-3)">
      <rect id="Rectangle_76" data-name="Rectangle 76" width="54.809" height="31.267" transform="translate(0 0)" fill="#fff"/>
    </g>
  </g>
</svg>
