<svg id="ship" xmlns="http://www.w3.org/2000/svg" xmlns:xlink="http://www.w3.org/1999/xlink" width="100.142" height="100.142" viewBox="0 0 100.142 100.142">
  <defs>
    <linearGradient id="linear-gradient" y1="0.505" x2="1" y2="0.505" gradientUnits="objectBoundingBox">
      <stop offset="0" stop-color="#d19753"/>
      <stop offset="0.61" stop-color="#c37f2e"/>
      <stop offset="1" stop-color="#aa6718"/>
    </linearGradient>
  </defs>
  <path id="Path_139" data-name="Path 139" d="M18.558,0H81.584a18.567,18.567,0,0,1,18.558,18.558V81.584a18.567,18.567,0,0,1-18.558,18.558H18.558A18.567,18.567,0,0,1,0,81.584V18.558A18.567,18.567,0,0,1,18.558,0Z" fill="url(#linear-gradient)"/>
  <g id="Layer_79" transform="translate(0.071)">
    <path id="Path_135" data-name="Path 135" d="M147.069,83.044a1.3,1.3,0,0,0-.653-1.067L115.655,64.213a1.388,1.388,0,0,0-1.306,0l-30.7,17.764A1.354,1.354,0,0,0,83,83.11v34.135a1.326,1.326,0,0,0,.653,1.132l30.783,17.764a1.388,1.388,0,0,0,1.306,0l30.609-17.764a1.281,1.281,0,0,0,.653-1.132V83.11s.065-.044.065-.065ZM115,66.869l28.17,16.24L131.7,89.728l-28.17-16.262Zm0,32.481L86.832,83.11l14.107-8.142,28.149,16.24ZM85.525,85.417l28.17,16.262v31.066L85.525,116.5Zm30.783,47.328V101.614l14.085-8.142v11.277a1.306,1.306,0,1,0,2.612,0V91.97l11.451-6.618v31.131Z" transform="translate(-64.931 -50.106)" fill="#fff"/>
  </g>
</svg>
