<svg id="increase_1_" data-name="increase (1)" xmlns="http://www.w3.org/2000/svg" width="62" height="62" viewBox="0 0 62 62">
  <path id="Path_22" data-name="Path 22" d="M332.348,246.512H319.633L316,230.164l3.633-10.9L332.348,212Zm0,0" transform="translate(-277.734 -186.328)" fill="#dfd7d5"/>
  <path id="Path_23" data-name="Path 23" d="M227.348,246.512H214.633L211,230.164,214.633,212l12.715,7.266Zm0,0" transform="translate(-185.449 -186.328)" fill="#ede9e8"/>
  <path id="Path_24" data-name="Path 24" d="M122.348,246.512H109.633L106,230.164l3.633-14.531L122.348,212Zm0,0" transform="translate(-93.164 -186.328)" fill="#dfd7d5"/>
  <path id="Path_25" data-name="Path 25" d="M30.531,272.879H17.816L16,256.531l1.816-3.633L30.531,242Zm0,0" transform="translate(-14.063 -212.695)" fill="#ede9e8"/>
  <path id="Path_26" data-name="Path 26" d="M76.062,122v14.531l-4.807-4.686-14.6,13.115-13.4-11.226L16,154.768v-8.973l27.246-20.852.182-.146,12.533,10.572L66.1,126.686,61.41,122Zm0,0" transform="translate(-14.062 -107.227)" fill="#ff9f00"/>
  <path id="Path_27" data-name="Path 27" d="M273.816,122v14.531l-4.807-4.686L254.4,144.96,241,133.734v-8.791l.182-.146,12.533,10.572,10.135-8.682L259.164,122Zm0,0" transform="translate(-211.816 -107.227)" fill="#ff7816"/>
  <path id="Path_28" data-name="Path 28" d="M62,58.367V62H0V0H3.754V58.367Zm0,0" fill="#68544f"/>
  <path id="Path_29" data-name="Path 29" d="M241,482h32.816v3.633H241Zm0,0" transform="translate(-211.816 -423.633)" fill="#53433f"/>
</svg>
