<svg xmlns="http://www.w3.org/2000/svg" width="24.894" height="22.132" viewBox="0 0 24.894 22.132">
  <path id="edit-icon" d="M8.95,1.783a.34.34,0,0,0-.1.242V6.93H-6.363V-8.283H4.075a.343.343,0,0,0,.246-.1L5.7-9.766a.348.348,0,0,0-.246-.592H-6.363A2.075,2.075,0,0,0-8.437-8.283V6.93A2.075,2.075,0,0,0-6.363,9H8.85A2.075,2.075,0,0,0,10.925,6.93V.646A.347.347,0,0,0,10.333.4Zm6.768-8.722a2.532,2.532,0,0,0,0-3.579l-1.867-1.867a2.522,2.522,0,0,0-3.574,0L-1.077-1.035l-.432,3.907A1.786,1.786,0,0,0,.461,4.842L4.368,4.41ZM11.448-5.6,3.413,2.426.591,2.742.907-.08l8.03-8.035Zm2.8-3.445a.461.461,0,0,1,0,.644L12.917-7.069,10.406-9.58l1.336-1.336a.451.451,0,0,1,.64,0Z" transform="translate(8.438 13.127)" fill="#e7aa37"/>
</svg>
