<svg xmlns="http://www.w3.org/2000/svg" width="30.815" height="26" viewBox="0 0 30.815 26">
  <g id="Add_Photo" data-name="Add Photo" transform="translate(-119 29)">
    <g id="Group_377" data-name="Group 377" transform="translate(119 -29)">
      <path id="Path_316" data-name="Path 316" d="M27.806,44.093H25.313l-1.922-3.764A.6.6,0,0,0,22.855,40h-10.6a.6.6,0,0,0-.536.328L9.795,44.093H7.343V42.829A1.145,1.145,0,0,0,6.2,41.685H4.394A1.145,1.145,0,0,0,3.25,42.829v1.264H3.009A3.013,3.013,0,0,0,0,47.1V62.991A3.013,3.013,0,0,0,3.009,66h24.8a3.013,3.013,0,0,0,3.009-3.009V47.1A3.013,3.013,0,0,0,27.806,44.093ZM12.622,41.2h9.865l1.475,2.889H11.146ZM4.454,42.889H6.139v1.2H4.454Zm25.157,20.1A1.808,1.808,0,0,1,27.806,64.8H3.009A1.808,1.808,0,0,1,1.2,62.991V47.1A1.808,1.808,0,0,1,3.009,45.3h24.8A1.808,1.808,0,0,1,29.611,47.1Z" transform="translate(0 -40)" fill="#0f122a"/>
      <path id="Path_317" data-name="Path 317" d="M169.369,152a8.309,8.309,0,0,0-7.795,5.431.6.6,0,1,0,1.129.417,7.1,7.1,0,1,1,0,4.916.6.6,0,0,0-1.129.417A8.306,8.306,0,1,0,169.369,152Z" transform="translate(-151.815 -145.259)" fill="#0f122a"/>
      <path id="Path_318" data-name="Path 318" d="M203.324,207.315a5.657,5.657,0,1,0-5.657-5.657A5.664,5.664,0,0,0,203.324,207.315Zm0-10.111a4.454,4.454,0,1,1-4.454,4.454A4.459,4.459,0,0,1,203.324,197.2Z" transform="translate(-185.77 -186.611)" fill="#0f122a"/>
      <path id="Path_319" data-name="Path 319" d="M282.269,245.6a1.543,1.543,0,0,1,1.541,1.541.6.6,0,1,0,1.2,0,2.748,2.748,0,0,0-2.745-2.744.6.6,0,1,0,0,1.2Z" transform="translate(-264.715 -232.097)" fill="#0f122a"/>
      <path id="Path_320" data-name="Path 320" d="M59.764,164.312a1.808,1.808,0,1,0,1.808,1.808A1.81,1.81,0,0,0,59.764,164.312Zm0,2.413a.6.6,0,1,1,.6-.6A.605.605,0,0,1,59.764,166.725Z" transform="translate(-54.468 -156.83)" fill="#0f122a"/>
      <circle id="Ellipse_5" data-name="Ellipse 5" cx="0.602" cy="0.602" r="0.602" transform="translate(9.249 14.444)" fill="#0f122a"/>
    </g>
  </g>
</svg>
