<svg id="Plus" xmlns="http://www.w3.org/2000/svg" width="25.295" height="25.295" viewBox="0 0 25.295 25.295">
  <path id="Path_324" data-name="Path 324" d="M22.331,9.683H15.612V2.964a2.964,2.964,0,1,0-5.929,0V9.683H2.964a2.964,2.964,0,0,0,0,5.929H9.683v6.719a2.964,2.964,0,0,0,5.929,0V15.612h6.719a2.964,2.964,0,0,0,0-5.929Zm0,4.446h-7.46a.741.741,0,0,0-.741.741v7.46a1.482,1.482,0,0,1-2.964,0v-7.46a.741.741,0,0,0-.741-.741H2.964a1.482,1.482,0,1,1,0-2.964h7.46a.741.741,0,0,0,.741-.741V2.964a1.482,1.482,0,1,1,2.964,0v7.46a.741.741,0,0,0,.741.741h7.46a1.482,1.482,0,0,1,0,2.964Z"/>
</svg>
