<svg xmlns="http://www.w3.org/2000/svg" width="25.777" height="25.779" viewBox="0 0 25.777 25.779">
  <path id="home_active" data-name="home active" d="M25.084,11.212l0,0L14.566.695a2.373,2.373,0,0,0-3.356,0L.7,11.2l-.011.011a2.372,2.372,0,0,0,1.579,4.043q.036,0,.073,0h.419V23a2.781,2.781,0,0,0,2.778,2.777H9.653a.755.755,0,0,0,.755-.755V18.956a1.269,1.269,0,0,1,1.267-1.267H14.1a1.269,1.269,0,0,1,1.267,1.267v6.067a.755.755,0,0,0,.755.755h4.114A2.781,2.781,0,0,0,23.016,23V15.263H23.4a2.373,2.373,0,0,0,1.679-4.05Zm0,0" transform="translate(0 0)" fill="#fff" />
</svg>