<svg id="Inventory" xmlns="http://www.w3.org/2000/svg" width="19.5" height="26" viewBox="0 0 19.5 26">
  <g id="Group_354" data-name="Group 354" transform="translate(0)">
    <g id="Group_353" data-name="Group 353">
      <path id="Path_278" data-name="Path 278" d="M83.341,5.575,77.925.159A.541.541,0,0,0,77.542,0H66.167A2.169,2.169,0,0,0,64,2.167V23.833A2.169,2.169,0,0,0,66.167,26H81.333A2.169,2.169,0,0,0,83.5,23.833V5.958A.541.541,0,0,0,83.341,5.575ZM78.083,1.849l3.567,3.567H79.167a1.084,1.084,0,0,1-1.083-1.083Zm4.333,21.984a1.084,1.084,0,0,1-1.083,1.083H66.167a1.084,1.084,0,0,1-1.083-1.083V2.167a1.084,1.084,0,0,1,1.083-1.083H77v3.25A2.169,2.169,0,0,0,79.167,6.5h3.25Z" transform="translate(-64 0)" fill="#fff"/>
      <path id="Path_279" data-name="Path 279" d="M140.458,298.667H128.542a.542.542,0,1,0,0,1.083h11.917a.542.542,0,1,0,0-1.083Z" transform="translate(-124.75 -283.5)" fill="#fff"/>
      <path id="Path_280" data-name="Path 280" d="M140.458,234.667H128.542a.542.542,0,1,0,0,1.083h11.917a.542.542,0,1,0,0-1.083Z" transform="translate(-124.75 -222.75)" fill="#fff"/>
      <path id="Path_281" data-name="Path 281" d="M140.458,362.667H128.542a.542.542,0,1,0,0,1.083h11.917a.542.542,0,1,0,0-1.083Z" transform="translate(-124.75 -344.25)" fill="#fff"/>
      <path id="Path_282" data-name="Path 282" d="M135.042,426.667h-6.5a.542.542,0,1,0,0,1.083h6.5a.542.542,0,0,0,0-1.083Z" transform="translate(-124.75 -405)" fill="#fff"/>
      <path id="Path_283" data-name="Path 283" d="M234.667,171.208a.541.541,0,0,0,.542.542h6.5a.542.542,0,1,0,0-1.083h-6.5A.541.541,0,0,0,234.667,171.208Z" transform="translate(-226 -161.999)" fill="#fff"/>
      <path id="Path_284" data-name="Path 284" d="M129.625,79.54h-1.083a.542.542,0,1,0,0,1.083h.542a.542.542,0,1,0,1.083,0v-.1a1.621,1.621,0,0,0-.542-3.15.542.542,0,0,1,0-1.083h1.083a.542.542,0,0,0,0-1.083h-.542a.542.542,0,0,0-1.083,0v.1a1.621,1.621,0,0,0,.542,3.15.542.542,0,1,1,0,1.083Z" transform="translate(-124.75 -70.873)" fill="#fff"/>
    </g>
  </g>
</svg>
