<svg xmlns="http://www.w3.org/2000/svg" width="19.909" height="26.545" viewBox="0 0 19.909 26.545">
  <g id="Inventory_Active" data-name="Inventory Active" transform="translate(-64)">
    <g id="Group_440" data-name="Group 440" transform="translate(64)">
      <path id="Path_350" data-name="Path 350" d="M83.746,5.692,78.217.163A.551.551,0,0,0,77.826,0H66.212A2.215,2.215,0,0,0,64,2.212V24.333a2.215,2.215,0,0,0,2.212,2.212H81.7a2.215,2.215,0,0,0,2.212-2.212V6.083A.551.551,0,0,0,83.746,5.692ZM68.977,7.742a1.655,1.655,0,0,1-.553-3.216v-.1a.553.553,0,1,1,1.106,0h.553a.553.553,0,0,1,0,1.106H68.977a.553.553,0,0,0,0,1.106,1.655,1.655,0,0,1,.553,3.216v.1a.553.553,0,1,1-1.106,0h-.553a.553.553,0,0,1,0-1.106h1.106a.553.553,0,1,0,0-1.106Zm5.53,15.485H67.871a.553.553,0,0,1,0-1.106h6.636a.553.553,0,0,1,0,1.106Zm5.53-3.318H67.871a.553.553,0,0,1,0-1.106H80.038a.553.553,0,1,1,0,1.106Zm0-3.318H67.871a.553.553,0,0,1,0-1.106H80.038a.553.553,0,1,1,0,1.106Zm0-3.318H67.871a.553.553,0,0,1,0-1.106H80.038a.553.553,0,1,1,0,1.106Zm0-3.318H73.4a.553.553,0,1,1,0-1.106h6.636a.553.553,0,1,1,0,1.106ZM79.485,5.53a1.107,1.107,0,0,1-1.106-1.106V1.888L82.021,5.53Z" transform="translate(-64)" fill="#fff"/>
    </g>
  </g>
</svg>
