<svg id="Notification_Unread" data-name="Notification Unread" xmlns="http://www.w3.org/2000/svg" width="40" height="40" viewBox="0 0 40 40">
  <path id="Exclusion_1" data-name="Exclusion 1" d="M-2647-2442a19.869,19.869,0,0,1-14.142-5.858A19.869,19.869,0,0,1-2667-2462a19.871,19.871,0,0,1,5.858-14.143A19.869,19.869,0,0,1-2647-2482a19.869,19.869,0,0,1,14.142,5.858A19.871,19.871,0,0,1-2627-2462a19.869,19.869,0,0,1-5.858,14.142A19.869,19.869,0,0,1-2647-2442Zm-9-28a2,2,0,0,0-2,2v12a2,2,0,0,0,2,2h18.756a2,2,0,0,0,2-2v-12a2,2,0,0,0-2-2Zm18.448,14.667h-18.141l5.7-5.722,1.906,1.912a2.069,2.069,0,0,0,1.461.588,2.066,2.066,0,0,0,1.46-.588l1.906-1.912,5.7,5.72Zm.974-.912,0,0-5.734-5.754,5.736-5.755v11.51Zm-20.089,0v-11.51l5.737,5.755-5.735,5.754Zm10.045-3.644a.729.729,0,0,1-.517-.2l-8.554-8.582h18.141c-.268.27-2.486,2.5-4.632,4.648l-3.922,3.934A.728.728,0,0,1-2646.622-2459.889Z" transform="translate(2667 2482)" fill="#fff"/>
</svg>
