<svg xmlns="http://www.w3.org/2000/svg" width="22.755" height="22.754" viewBox="0 0 22.755 22.754">
  <g id="Notification_Read" data-name="Notification Read" transform="translate(0 -0.005)" opacity="0.5">
    <path id="Path_445" data-name="Path 445" d="M22.755,9.029v0c0-.019,0-.038,0-.056l0-.015q0-.022-.006-.044l0-.016c0-.018-.008-.035-.013-.052V8.839c-.005-.018-.011-.035-.018-.052L22.7,8.768l-.016-.034-.01-.019c-.008-.016-.017-.031-.027-.046l-.011-.016-.023-.032L22.6,8.6c-.012-.014-.024-.028-.037-.041l0,0c-.014-.014-.028-.027-.044-.04l-.005,0-1.137-.943v-2.9a1.557,1.557,0,0,0-1.556-1.556H16.009L12.938.568a2.446,2.446,0,0,0-3.122,0L6.745,3.116H2.933A1.557,1.557,0,0,0,1.378,4.672v2.9L.241,8.514l-.005,0c-.015.013-.03.026-.044.04l0,0C.176,8.576.164,8.59.152,8.6L.139,8.62l-.023.032L.1,8.669c-.01.015-.018.03-.027.046l-.01.019-.016.034-.008.019c-.007.017-.013.034-.018.052v.005c0,.017-.009.035-.013.052l0,.016q0,.022-.006.044l0,.015c0,.019,0,.037,0,.056v0H0V20.315A2.437,2.437,0,0,0,.766,22.09c.013.013.027.027.041.039a2.435,2.435,0,0,0,1.637.631H20.311a2.435,2.435,0,0,0,1.637-.631c.014-.012.028-.025.041-.038a2.437,2.437,0,0,0,.767-1.775V9.03h0ZM2.933,4.45H19.822a.222.222,0,0,1,.222.222V9.858l-.377.313-7.58,6.29a1.112,1.112,0,0,1-1.419,0l-7.58-6.29-.377-.313V4.672a.222.222,0,0,1,.222-.222Zm-1.6,15.865V10.447l.287.238h0l6.51,5.4L1.4,20.7a1.105,1.105,0,0,1-.068-.383ZM9.2,16.973l.619.514a2.446,2.446,0,0,0,3.122,0l.619-.514,6.5,4.453H2.7Zm5.428-.885,6.51-5.4h0l.287-.238v9.868a1.105,1.105,0,0,1-.068.383ZM10.668,1.594a1.112,1.112,0,0,1,1.419,0l1.835,1.523H8.833Z" transform="translate(0 0)" fill="#fff"/>
    <path id="Path_446" data-name="Path 446" d="M131.5,150.662a.667.667,0,0,0,.667.667h6.311a.667.667,0,1,0,0-1.333h-6.311A.667.667,0,0,0,131.5,150.662Z" transform="translate(-125.656 -143.324)" fill="#fff"/>
    <path id="Path_447" data-name="Path 447" d="M132.167,211.328H141.9a.667.667,0,0,0,0-1.333h-9.733a.667.667,0,0,0,0,1.333Z" transform="translate(-125.656 -200.657)" fill="#fff"/>
  </g>
</svg>
