<svg xmlns="http://www.w3.org/2000/svg" width="28.364" height="26" viewBox="0 0 28.364 26">
  <g id="Photo_Grade" data-name="Photo Grade" transform="translate(0 -2)">
    <g id="Group_469" data-name="Group 469" transform="translate(0 11.101)">
      <path id="Path_371" data-name="Path 371" d="M20.626,26.6a2.357,2.357,0,0,1-.6-.078L1.749,21.628a2.385,2.385,0,0,1-1.671-2.9l2.306-8.594a.591.591,0,0,1,1.142.3l-2.3,8.592a1.2,1.2,0,0,0,.839,1.452l18.267,4.892a1.176,1.176,0,0,0,1.438-.832l.923-3.42a.591.591,0,1,1,1.142.307l-.922,3.415a2.36,2.36,0,0,1-2.282,1.75Z" transform="translate(0 -9.701)" fill="#fff"/>
    </g>
    <g id="Group_470" data-name="Group 470" transform="translate(4.727 2)">
      <path id="Path_372" data-name="Path 372" d="M25.273,20.909H6.364A2.366,2.366,0,0,1,4,18.545V4.364A2.366,2.366,0,0,1,6.364,2H25.273a2.366,2.366,0,0,1,2.364,2.364V18.545A2.366,2.366,0,0,1,25.273,20.909ZM6.364,3.182A1.184,1.184,0,0,0,5.182,4.364V18.545a1.184,1.184,0,0,0,1.182,1.182H25.273a1.184,1.184,0,0,0,1.182-1.182V4.364a1.184,1.184,0,0,0-1.182-1.182Z" transform="translate(-4 -2)" fill="#fff"/>
    </g>
    <g id="Group_471" data-name="Group 471" transform="translate(8.273 5.545)">
      <path id="Path_373" data-name="Path 373" d="M9.364,9.727a2.364,2.364,0,1,1,2.364-2.364A2.366,2.366,0,0,1,9.364,9.727Zm0-3.545a1.182,1.182,0,1,0,1.182,1.182A1.184,1.184,0,0,0,9.364,6.182Z" transform="translate(-7 -5)" fill="#fff"/>
    </g>
    <g id="Group_472" data-name="Group 472" transform="translate(4.81 8.559)">
      <path id="Path_374" data-name="Path 374" d="M4.661,18.635a.59.59,0,0,1-.418-1.008l5.582-5.582a1.816,1.816,0,0,1,2.507,0l1.662,1.662,4.6-5.519a1.776,1.776,0,0,1,1.35-.638h.013a1.772,1.772,0,0,1,1.346.618l6.181,7.211a.591.591,0,1,1-.9.769L20.4,8.937a.585.585,0,0,0-.449-.206.627.627,0,0,0-.454.213l-5.014,6.017a.589.589,0,0,1-.428.212A.569.569,0,0,1,13.614,15L11.5,12.881a.607.607,0,0,0-.836,0L5.078,18.463a.589.589,0,0,1-.417.173Z" transform="translate(-4.07 -7.55)" fill="#fff"/>
    </g>
  </g>
</svg>
