<svg xmlns="http://www.w3.org/2000/svg" width="28.363" height="26" viewBox="0 0 28.363 26">
  <g id="Photo_Grade_Active" data-name="Photo Grade Active" transform="translate(0 -2)">
    <g id="Group_468" data-name="Group 468" transform="translate(0.001 5.545)">
      <g id="Group_467" data-name="Group 467" transform="translate(0 4.647)">
        <path id="Path_368" data-name="Path 368" d="M7.386,21.421A4.425,4.425,0,0,1,3.2,18.407l-.041-.136a4.311,4.311,0,0,1-.2-1.281V8.932L.087,18.5a2.684,2.684,0,0,0,1.881,3.256l18.274,4.894a2.71,2.71,0,0,0,.681.087,2.635,2.635,0,0,0,2.554-1.932l1.065-3.386Z" transform="translate(-0.001 -8.932)" fill="#fff"/>
      </g>
      <path id="Path_369" data-name="Path 369" d="M9.364,9.727A2.364,2.364,0,1,0,7,7.364,2.366,2.366,0,0,0,9.364,9.727Z" transform="translate(1.272 -5)" fill="#fff"/>
    </g>
    <path id="Path_370" data-name="Path 370" d="M24.682,2H6.955A2.959,2.959,0,0,0,4,4.955v13a2.959,2.959,0,0,0,2.955,2.955H24.682a2.959,2.959,0,0,0,2.955-2.955v-13A2.959,2.959,0,0,0,24.682,2ZM6.955,4.364H24.682a.591.591,0,0,1,.591.591v8.39L21.539,8.988a2.117,2.117,0,0,0-1.585-.727,2.066,2.066,0,0,0-1.579.746l-4.389,5.269-1.43-1.426a2.074,2.074,0,0,0-2.931,0L6.364,16.11V4.955a.591.591,0,0,1,.591-.591Z" transform="translate(0.727 0)" fill="#fff"/>
  </g>
</svg>
