<svg id="Search_Active" data-name="Search Active" xmlns="http://www.w3.org/2000/svg" width="26" height="26" viewBox="0 0 26 26">
  <path id="Path_345" data-name="Path 345" d="M386.256,2.836l3.55,3.55,1.061-1.061.7.7,1.077-1.077L387.7,0l-1.077,1.077.7.7Z" transform="translate(-366.641)" fill="#fff"/>
  <path id="Path_346" data-name="Path 346" d="M45.478,265.341l.846,4.228,5.143,5.143,4.228.846Z" transform="translate(-43.169 -251.867)" fill="#fff"/>
  <path id="Path_347" data-name="Path 347" d="M6.424,389.045l-3.55-3.55-1.1,1.1-.7-.7L0,386.974l4.945,4.945,1.077-1.077-.7-.7Z" transform="translate(0 -365.919)" fill="#fff"/>
  <path id="Path_348" data-name="Path 348" d="M68.306,59.3,59.3,68.307,70.263,79.274l9.011-9.011Zm.844,15.976L63.3,69.419l1.077-1.077,5.852,5.852Zm2.522-2.522L65.82,66.9,66.9,65.82l5.852,5.852Zm-3.33-8.374L69.419,63.3l5.852,5.852-1.077,1.077Z" transform="translate(-56.285 -56.285)" fill="#fff"/>
  <path id="Path_349" data-name="Path 349" d="M269.665,46.343l-4.324-.865,10.216,10.216-.865-4.324Z" transform="translate(-251.867 -43.169)" fill="#fff"/>
</svg>
