<svg id="Search_Inactive" data-name="Search Inactive" xmlns="http://www.w3.org/2000/svg" width="26.028" height="26.028" viewBox="0 0 26.028 26.028">
  <path id="Path_271" data-name="Path 271" d="M24.95,6.029,26.028,4.95,21.078,0,20,1.078l.7.7L19.05,3.424,12.862,2.187,2.187,12.862,3.424,19.05,1.777,20.7l-.7-.7L0,21.078l4.95,4.95L6.029,24.95l-.7-.7L6.978,22.6l6.188,1.238L23.841,13.166,22.6,6.978,24.251,5.33Zm-20,12.9-.7-3.492L10.6,21.772l-3.492-.7Zm-.862-5.812,9.02-9.02,8.822,8.822-9.02,9.02Zm11.34-8.857,3.492.7L21.074,7.1l.7,3.492ZM4.252,23.173l-1.4-1.4,1.4-1.4,1.4,1.4ZM23.173,4.252l-1.4,1.4-1.4-1.4,1.4-1.4Z" transform="translate(0 0)" fill="#fff"/>
  <path id="Path_272" data-name="Path 272" d="M0,0H1.525V8.285H0Z" transform="translate(7.019 13.148) rotate(-45)" fill="#fff"/>
  <path id="Path_273" data-name="Path 273" d="M0,0H1.525V8.285H0Z" transform="translate(9.543 10.624) rotate(-45)" fill="#fff"/>
  <path id="Path_274" data-name="Path 274" d="M0,0H1.525V8.285H0Z" transform="translate(12.068 8.1) rotate(-45)" fill="#fff"/>
</svg>
