<svg xmlns="http://www.w3.org/2000/svg" xmlns:xlink="http://www.w3.org/1999/xlink" width="27" height="27" viewBox="0 0 27 27">
  <defs>
    <linearGradient id="linear-gradient" x1="-1.148" y1="-0.474" x2="-1.036" y2="-0.474" gradientUnits="objectBoundingBox">
      <stop offset="0" stop-color="#ccccce"/>
      <stop offset="1" stop-color="#e8e8ea"/>
    </linearGradient>
    <linearGradient id="linear-gradient-2" x1="-0.457" y1="-0.064" x2="-0.512" y2="-0.175" xlink:href="#linear-gradient"/>
  </defs>
  <g id="Settings" transform="translate(-94.313 -89.824)">
    <path id="Path_443" data-name="Path 443" d="M173.692,161.177v-.45l-1.529-.357c-.017-.2-.045-.4-.079-.595l1.386-.741-.116-.435-1.572.051q-.1-.284-.229-.553l1.147-1.075-.225-.39-1.5.455c-.115-.164-.236-.325-.365-.478l.828-1.332-.318-.318-1.332.828c-.153-.129-.314-.25-.478-.365l.455-1.5-.39-.225-1.075,1.147c-.181-.085-.365-.16-.553-.229l.051-1.572-.435-.116-.741,1.386c-.2-.034-.394-.062-.595-.079l-.358-1.53h-.45l-.357,1.529c-.2.017-.4.045-.595.079l-.741-1.386-.435.116.051,1.572q-.284.1-.553.229l-1.075-1.147-.39.225.455,1.5c-.164.115-.325.236-.478.365l-1.332-.828-.318.318.828,1.332c-.129.153-.25.314-.365.478l-1.5-.455-.225.39,1.147,1.075c-.085.181-.16.365-.229.553l-1.572-.051-.116.435,1.386.741c-.034.2-.062.394-.079.595l-1.53.358v.45l1.529.357c.017.2.045.4.079.595l-1.386.741.116.435,1.572-.051q.1.284.229.553l-1.147,1.075.225.39,1.5-.455c.115.164.236.325.365.478l-.828,1.332.318.318,1.332-.828c.153.129.314.25.478.365l-.455,1.5.39.225,1.075-1.147c.181.085.365.16.553.229l-.051,1.572.435.116.741-1.386c.2.034.394.062.595.079l.358,1.53h.45l.357-1.529c.2-.017.4-.045.595-.079l.741,1.386.435-.116-.051-1.572q.284-.1.553-.229l1.075,1.147.39-.225-.455-1.5c.164-.115.325-.236.478-.365l1.332.828.318-.318-.828-1.332c.129-.153.25-.314.365-.478l1.5.455.225-.39-1.147-1.075c.085-.181.16-.365.229-.553l1.572.051.116-.435-1.386-.741c.034-.2.062-.394.079-.595Zm-3.75-.225a4.5,4.5,0,1,1-4.5-4.5A4.5,4.5,0,0,1,169.942,160.952Z" transform="translate(-57.629 -57.628)" opacity="0.24" fill="url(#linear-gradient)" style="mix-blend-mode: normal;isolation: isolate"/>
    <path id="Path_444" data-name="Path 444" d="M121.313,103.549v-.45l-1.529-.357a11.942,11.942,0,0,0-.247-1.96l1.375-.735-.116-.435-1.558.051a11.968,11.968,0,0,0-.763-1.824l1.143-1.071-.225-.39-1.5.455a11.982,11.982,0,0,0-1.2-1.559l.831-1.337-.318-.318-1.337.831a12.079,12.079,0,0,0-1.559-1.2l.455-1.5-.39-.225L113.3,92.663a11.9,11.9,0,0,0-1.824-.763l.051-1.558-.435-.116-.735,1.375a11.941,11.941,0,0,0-1.96-.247l-.356-1.528h-.45l-.357,1.529a11.942,11.942,0,0,0-1.96.247l-.735-1.375-.435.116.051,1.558a11.893,11.893,0,0,0-1.824.763l-1.071-1.143-.39.225.455,1.5a11.983,11.983,0,0,0-1.559,1.2l-1.337-.831-.318.318.831,1.337a12.079,12.079,0,0,0-1.2,1.559l-1.5-.455-.225.39,1.143,1.071a11.906,11.906,0,0,0-.763,1.824l-1.558-.051-.116.435,1.375.735a11.943,11.943,0,0,0-.247,1.96l-1.528.356v.45l1.529.357a11.941,11.941,0,0,0,.247,1.96l-1.375.735.116.435,1.558-.051a11.968,11.968,0,0,0,.763,1.824l-1.143,1.071.225.39,1.5-.455a11.977,11.977,0,0,0,1.2,1.559l-.831,1.337.318.318,1.337-.831a12.079,12.079,0,0,0,1.559,1.2l-.455,1.5.39.225,1.071-1.143a11.905,11.905,0,0,0,1.824.763l-.051,1.558.435.116.735-1.375a11.942,11.942,0,0,0,1.96.247l.356,1.528h.45l.357-1.529a11.942,11.942,0,0,0,1.96-.247l.735,1.375.435-.116-.051-1.558a11.893,11.893,0,0,0,1.824-.763l1.071,1.143.39-.225-.455-1.5a11.983,11.983,0,0,0,1.559-1.2l1.337.831.318-.318-.831-1.337a12.084,12.084,0,0,0,1.2-1.559l1.5.455.225-.39-1.143-1.071a11.9,11.9,0,0,0,.763-1.824l1.558.051.116-.435-1.375-.735a11.942,11.942,0,0,0,.247-1.96Zm-4.081-2.729a1.117,1.117,0,0,1-1.1,1.379H109.3a1.863,1.863,0,0,0-1.261-.727l-3.416-5.917a1.132,1.132,0,0,1,.7-1.658,9.655,9.655,0,0,1,2.483-.323A9.761,9.761,0,0,1,117.232,100.82Zm-8.669,2.5a.75.75,0,1,1-.75-.75A.75.75,0,0,1,108.563,103.324Zm-10.5,0A9.7,9.7,0,0,1,100.9,96.47a1.132,1.132,0,0,1,1.786.223l3.4,5.9a1.867,1.867,0,0,0,0,1.472l-3.4,5.895a1.132,1.132,0,0,1-1.786.223A9.691,9.691,0,0,1,98.063,103.324Zm9.75,9.75a9.655,9.655,0,0,1-2.483-.323,1.132,1.132,0,0,1-.7-1.658l3.416-5.917a1.863,1.863,0,0,0,1.261-.727h6.83a1.117,1.117,0,0,1,1.1,1.379A9.762,9.762,0,0,1,107.813,113.074Z" fill="url(#linear-gradient-2)"/>
  </g>
</svg>
