<svg xmlns="http://www.w3.org/2000/svg" width="21.117" height="26" viewBox="0 0 21.117 26">
  <g id="Delete_Black" data-name="Delete Black" transform="translate(0.003 0.002)">
    <path id="Path_386" data-name="Path 386" d="M223.007,154.7a.609.609,0,0,0-.609.609V166.82a.609.609,0,0,0,1.218,0V155.312A.609.609,0,0,0,223.007,154.7Zm0,0" transform="translate(-208.859 -145.285)"/>
    <path id="Path_387" data-name="Path 387" d="M105.007,154.7a.609.609,0,0,0-.609.609V166.82a.609.609,0,0,0,1.218,0V155.312A.609.609,0,0,0,105.007,154.7Zm0,0" transform="translate(-98.044 -145.285)"/>
    <path id="Path_388" data-name="Path 388" d="M1.726,7.739v15a3.359,3.359,0,0,0,.893,2.317A3,3,0,0,0,4.795,26H16.315a3,3,0,0,0,2.176-.941,3.359,3.359,0,0,0,.893-2.317v-15a2.326,2.326,0,0,0-.6-4.574H15.67V2.4A2.392,2.392,0,0,0,13.258,0H7.852A2.392,2.392,0,0,0,5.44,2.4v.761H2.323a2.326,2.326,0,0,0-.6,4.574ZM16.315,24.781H4.795a1.928,1.928,0,0,1-1.851-2.04V7.792H18.166V22.741a1.928,1.928,0,0,1-1.851,2.04ZM6.658,2.4A1.173,1.173,0,0,1,7.852,1.216h5.407A1.173,1.173,0,0,1,14.452,2.4v.761H6.658ZM2.323,4.383H18.787a1.1,1.1,0,0,1,0,2.192H2.323a1.1,1.1,0,0,1,0-2.192Zm0,0" transform="translate(0)"/>
    <path id="Path_389" data-name="Path 389" d="M164.007,154.7a.609.609,0,0,0-.609.609V166.82a.609.609,0,0,0,1.218,0V155.312A.609.609,0,0,0,164.007,154.7Zm0,0" transform="translate(-153.452 -145.285)"/>
  </g>
</svg>
