<svg xmlns="http://www.w3.org/2000/svg" xmlns:xlink="http://www.w3.org/1999/xlink" width="26.079" height="25" viewBox="0 0 26.079 25">
  <defs>
    <linearGradient id="linear-gradient" y1="0.5" x2="1" y2="0.5" gradientUnits="objectBoundingBox">
      <stop offset="0.034" stop-color="#9e5424"/>
      <stop offset="0.315" stop-color="#e7aa37"/>
      <stop offset="0.48" stop-color="#f4f19a"/>
      <stop offset="0.704" stop-color="#e7aa37"/>
      <stop offset="0.88" stop-color="#d59532"/>
      <stop offset="1" stop-color="#e7aa37"/>
    </linearGradient>
    <linearGradient id="linear-gradient-2" x1="0.049" y1="0.141" x2="0.961" y2="1.315" gradientUnits="objectBoundingBox">
      <stop offset="0" stop-color="#d9d9d9"/>
      <stop offset="1" stop-color="#7a7a7a"/>
    </linearGradient>
    <linearGradient id="linear-gradient-3" x1="0.293" y1="-0.223" x2="0.784" y2="1.424" xlink:href="#linear-gradient"/>
    <linearGradient id="linear-gradient-4" x1="-1.099" y1="0.206" x2="2.272" y2="0.857" xlink:href="#linear-gradient"/>
    <linearGradient id="linear-gradient-5" x1="-0.258" y1="0.128" x2="1.029" y2="0.984" xlink:href="#linear-gradient"/>
  </defs>
  <g id="CM-Logo-Only" transform="translate(-233.734 -216.517)">
    <path id="Path_415" data-name="Path 415" d="M280.868,237.887v.19a8.6,8.6,0,0,1-1.184.075,5.864,5.864,0,0,1-1.611-.284c-.086-.026-.17-.054-.254-.086a3.853,3.853,0,0,1-.9-.484,4.346,4.346,0,0,1-.575-.491,6.953,6.953,0,0,1-1.934-4.128l-1.154-8.43-3.941,8.9a7.446,7.446,0,0,0-.644,1.931h-.189l-4.905-10.663-.833,9.412a.672.672,0,0,0,.2.568.71.71,0,0,0,.521.248h.3v.17h-3.676v-.189h.3a1.4,1.4,0,0,0,.9-.312,1.336,1.336,0,0,0,.482-.825l1.193-10.343a6.864,6.864,0,0,0-2.2-2.726,3.208,3.208,0,0,0-1.8-.551c-.062,0-.127,0-.194,0s-.159.009-.241.015V219.7a4.421,4.421,0,0,1,.577-.114c.269-.228.549-.441.842-.644a12.689,12.689,0,0,1,1.29-.795,13.941,13.941,0,0,1,6.731-1.632,18.741,18.741,0,0,1,4.755.635,13.544,13.544,0,0,1,4.035,1.7l.687,4.841h-.308a7.242,7.242,0,0,0-3.331-4.516,10.731,10.731,0,0,0-5.8-1.63,10.059,10.059,0,0,0-6.113,1.912c-.192.142-.381.291-.566.448a3.849,3.849,0,0,1,.6.314,5.779,5.779,0,0,1,1.439,1.3,7.947,7.947,0,0,1,.814,1.307l4.565,9.886,5.1-11.421h.17l1.761,11.215a7.151,7.151,0,0,0,1.714,4.014c.024.026.05.049.073.073.14-.166.273-.336.4-.512a13.05,13.05,0,0,0,2.274-7.924h.342c.024.276.034.549.034.825a13.92,13.92,0,0,1-1.957,7.677c-.118.183-.241.362-.368.534a4.155,4.155,0,0,0,2.354.693Z" transform="translate(-21.055)" fill="url(#linear-gradient)"/>
    <path id="Path_416" data-name="Path 416" d="M247.677,262.965a10.808,10.808,0,0,1-8.226-3.314,12.408,12.408,0,0,1-.2-16.271,2.569,2.569,0,0,0-1.333-.383c-.118,0-.245.006-.381.017l-.532.045a12.515,12.515,0,0,0-1.535,14.789,12.187,12.187,0,0,0,4.877,4.5A14.94,14.94,0,0,0,247.4,264q5.727,0,8.9-3.228a4.744,4.744,0,0,1-.913-.543A11.156,11.156,0,0,1,247.677,262.965Z" transform="translate(0 -22.48)" fill="#fff"/>
    <path id="Path_417" data-name="Path 417" d="M263.2,262.383a11.682,11.682,0,0,1-9.309,3.721c-.047,0-.1,0-.144-.011-.286-.024-.571-.056-.851-.095l-.177-.026c-.379-.065-.758-.147-1.135-.248a11.682,11.682,0,0,1-4.52-20.188,12.408,12.408,0,0,0,.2,16.271,10.808,10.808,0,0,0,8.226,3.314A11.156,11.156,0,0,0,263.2,262.383Z" transform="translate(-7.818 -24.636)" fill="url(#linear-gradient-2)"/>
    <path id="Path_418" data-name="Path 418" d="M287.956,226.673h-.308a7.242,7.242,0,0,0-3.331-4.516,10.731,10.731,0,0,0-5.8-1.63,10.059,10.059,0,0,0-6.113,1.912c-.192.142-.381.291-.566.448l-.926-.523a14.119,14.119,0,0,1,10.463-2.1,12.853,12.853,0,0,1,6.111,3.075Z" transform="translate(-31.558 -2.979)" fill="url(#linear-gradient-3)"/>
    <path id="Path_419" data-name="Path 419" d="M284.018,275.644v.17H282.6a3.868,3.868,0,0,1-.2-.741c-.026-.329,1.178-10.265,1.178-10.265l.256.607L283,274.828a.672.672,0,0,0,.2.568.71.71,0,0,0,.521.248Z" transform="translate(-41.309 -40.995)" fill="url(#linear-gradient-4)"/>
    <path id="Path_420" data-name="Path 420" d="M363.573,275.216v.19a8.6,8.6,0,0,1-1.184.075,5.864,5.864,0,0,1-1.611-.284c-.086-.026-.17-.054-.254-.086a3.851,3.851,0,0,1-.9-.484,4.346,4.346,0,0,1-.575-.491,6.953,6.953,0,0,1-1.934-4.128l-1.154-8.43.551-1.087s.913,7.675,1.546,10.134S359.717,275.377,363.573,275.216Z" transform="translate(-103.76 -37.329)" fill="url(#linear-gradient-5)"/>
  </g>
</svg>
