<svg version="1.2" xmlns="http://www.w3.org/2000/svg" viewBox="0 0 167 37" width="167" height="37">
	<title>cm-logo-home-svg</title>
	<defs>
		<linearGradient id="g1" x1="72.9" y1="25.7" x2="105.3" y2="64" gradientUnits="userSpaceOnUse">
			<stop offset="0" stop-color="#9e5424"/>
			<stop offset=".3" stop-color="#e7aa37"/>
			<stop offset=".5" stop-color="#f4f19a"/>
			<stop offset=".7" stop-color="#e7aa37"/>
			<stop offset=".9" stop-color="#d59532"/>
			<stop offset="1" stop-color="#e7aa37"/>
		</linearGradient>
		<linearGradient id="g2" x1="77.2" y1="22.1" x2="109.6" y2="60.4" gradientUnits="userSpaceOnUse">
			<stop offset="0" stop-color="#9e5424"/>
			<stop offset=".3" stop-color="#e7aa37"/>
			<stop offset=".5" stop-color="#f4f19a"/>
			<stop offset=".7" stop-color="#e7aa37"/>
			<stop offset=".9" stop-color="#d59532"/>
			<stop offset="1" stop-color="#e7aa37"/>
		</linearGradient>
		<linearGradient id="g3" x1="81.7" y1="18.3" x2="114.2" y2="56.6" gradientUnits="userSpaceOnUse">
			<stop offset="0" stop-color="#9e5424"/>
			<stop offset=".3" stop-color="#e7aa37"/>
			<stop offset=".5" stop-color="#f4f19a"/>
			<stop offset=".7" stop-color="#e7aa37"/>
			<stop offset=".9" stop-color="#d59532"/>
			<stop offset="1" stop-color="#e7aa37"/>
		</linearGradient>
		<linearGradient id="g4" x1="85.8" y1="14.8" x2="118.2" y2="53.1" gradientUnits="userSpaceOnUse">
			<stop offset="0" stop-color="#9e5424"/>
			<stop offset=".3" stop-color="#e7aa37"/>
			<stop offset=".5" stop-color="#f4f19a"/>
			<stop offset=".7" stop-color="#e7aa37"/>
			<stop offset=".9" stop-color="#d59532"/>
			<stop offset="1" stop-color="#e7aa37"/>
		</linearGradient>
		<linearGradient id="g5" x1="89.2" y1="11.9" x2="121.7" y2="50.2" gradientUnits="userSpaceOnUse">
			<stop offset="0" stop-color="#9e5424"/>
			<stop offset=".3" stop-color="#e7aa37"/>
			<stop offset=".5" stop-color="#f4f19a"/>
			<stop offset=".7" stop-color="#e7aa37"/>
			<stop offset=".9" stop-color="#d59532"/>
			<stop offset="1" stop-color="#e7aa37"/>
		</linearGradient>
		<linearGradient id="g6" x1="92.9" y1="8.7" x2="125.3" y2="47.1" gradientUnits="userSpaceOnUse">
			<stop offset="0" stop-color="#9e5424"/>
			<stop offset=".3" stop-color="#e7aa37"/>
			<stop offset=".5" stop-color="#f4f19a"/>
			<stop offset=".7" stop-color="#e7aa37"/>
			<stop offset=".9" stop-color="#d59532"/>
			<stop offset="1" stop-color="#e7aa37"/>
		</linearGradient>
		<linearGradient id="g7" x1="97.5" y1="4.9" x2="129.9" y2="43.2" gradientUnits="userSpaceOnUse">
			<stop offset="0" stop-color="#9e5424"/>
			<stop offset=".3" stop-color="#e7aa37"/>
			<stop offset=".5" stop-color="#f4f19a"/>
			<stop offset=".7" stop-color="#e7aa37"/>
			<stop offset=".9" stop-color="#d59532"/>
			<stop offset="1" stop-color="#e7aa37"/>
		</linearGradient>
		<linearGradient id="g8" x1="101.8" y1="1.3" x2="134.2" y2="39.5" gradientUnits="userSpaceOnUse">
			<stop offset="0" stop-color="#9e5424"/>
			<stop offset=".3" stop-color="#e7aa37"/>
			<stop offset=".5" stop-color="#f4f19a"/>
			<stop offset=".7" stop-color="#e7aa37"/>
			<stop offset=".9" stop-color="#d59532"/>
			<stop offset="1" stop-color="#e7aa37"/>
		</linearGradient>
		<linearGradient id="g9" x1="105.6" y1="-2" x2="138" y2="36.3" gradientUnits="userSpaceOnUse">
			<stop offset="0" stop-color="#9e5424"/>
			<stop offset=".3" stop-color="#e7aa37"/>
			<stop offset=".5" stop-color="#f4f19a"/>
			<stop offset=".7" stop-color="#e7aa37"/>
			<stop offset=".9" stop-color="#d59532"/>
			<stop offset="1" stop-color="#e7aa37"/>
		</linearGradient>
		<linearGradient id="g10" x1="110" y1="-5.7" x2="142.4" y2="32.6" gradientUnits="userSpaceOnUse">
			<stop offset="0" stop-color="#9e5424"/>
			<stop offset=".3" stop-color="#e7aa37"/>
			<stop offset=".5" stop-color="#f4f19a"/>
			<stop offset=".7" stop-color="#e7aa37"/>
			<stop offset=".9" stop-color="#d59532"/>
			<stop offset="1" stop-color="#e7aa37"/>
		</linearGradient>
		<linearGradient id="g11" x1="15.5" y1="15.9" x2="48.4" y2="15.9" gradientUnits="userSpaceOnUse">
			<stop offset="0" stop-color="#9e5424"/>
			<stop offset=".3" stop-color="#e7aa37"/>
			<stop offset=".5" stop-color="#f4f19a"/>
			<stop offset=".7" stop-color="#e7aa37"/>
			<stop offset=".9" stop-color="#d59532"/>
			<stop offset="1" stop-color="#e7aa37"/>
		</linearGradient>
		<linearGradient id="g12" x1="13.5" y1="10.7" x2="40.7" y2="46.3" gradientUnits="userSpaceOnUse">
			<stop offset="0" stop-color="#d9d9d9"/>
			<stop offset="1" stop-color="#7a7a7a"/>
		</linearGradient>
		<linearGradient id="g13" x1="25.6" y1="-1.4" x2="37.9" y2="14.7" gradientUnits="userSpaceOnUse">
			<stop offset="0" stop-color="#9e5424"/>
			<stop offset=".3" stop-color="#e7aa37"/>
			<stop offset=".5" stop-color="#f4f19a"/>
			<stop offset=".7" stop-color="#e7aa37"/>
			<stop offset=".9" stop-color="#d59532"/>
			<stop offset="1" stop-color="#e7aa37"/>
		</linearGradient>
		<linearGradient id="g14" x1="18.2" y1="14.1" x2="26.2" y2="24.6" gradientUnits="userSpaceOnUse">
			<stop offset="0" stop-color="#9e5424"/>
			<stop offset=".3" stop-color="#e7aa37"/>
			<stop offset=".5" stop-color="#f4f19a"/>
			<stop offset=".7" stop-color="#e7aa37"/>
			<stop offset=".9" stop-color="#d59532"/>
			<stop offset="1" stop-color="#e7aa37"/>
		</linearGradient>
		<linearGradient id="g15" x1="34.3" y1="12.6" x2="48.7" y2="31.5" gradientUnits="userSpaceOnUse">
			<stop offset="0" stop-color="#9e5424"/>
			<stop offset=".3" stop-color="#e7aa37"/>
			<stop offset=".5" stop-color="#f4f19a"/>
			<stop offset=".7" stop-color="#e7aa37"/>
			<stop offset=".9" stop-color="#d59532"/>
			<stop offset="1" stop-color="#e7aa37"/>
		</linearGradient>
	</defs>
	<style>
		.s0 { fill: #ffffff } 
		.s1 { fill: url(#g1) } 
		.s2 { fill: url(#g2) } 
		.s3 { fill: url(#g3) } 
		.s4 { fill: url(#g4) } 
		.s5 { fill: url(#g5) } 
		.s6 { fill: url(#g6) } 
		.s7 { fill: url(#g7) } 
		.s8 { fill: url(#g8) } 
		.s9 { fill: url(#g9) } 
		.s10 { fill: url(#g10) } 
		.s11 { fill: url(#g11) } 
		.s12 { fill: url(#g12) } 
		.s13 { fill: url(#g13) } 
		.s14 { fill: url(#g14) } 
		.s15 { fill: url(#g15) } 
	</style>
	<g id="CM-Logo-Home">
		<g id="Group_499">
			<g id="Group_497">
				<path id="Path_390" class="s0" d="m58.6 20.2c-1-1-1.7-2.3-2-3.7-0.3-1.4-0.2-2.9 0.4-4.2 0.5-1.4 1.5-2.5 2.7-3.3 1.2-0.7 2.6-1.1 4.1-1.1q0.6 0 1.2 0.1 0.6 0.1 1.2 0.2 0.6 0.2 1.1 0.5 0.6 0.2 1.1 0.5l0.4 2.8h-0.2q-0.1-0.4-0.2-0.8-0.2-0.3-0.4-0.7-0.2-0.3-0.5-0.6-0.3-0.3-0.6-0.5-0.4-0.2-0.7-0.4-0.4-0.2-0.8-0.3-0.4-0.1-0.8-0.2-0.4 0-0.8 0-0.6 0-1.2 0.1-0.5 0.1-1.1 0.3-0.5 0.3-1 0.6-0.4 0.3-0.8 0.8-0.4 0.5-0.7 1-0.3 0.6-0.5 1.2-0.2 0.6-0.3 1.2-0.1 0.7-0.1 1.3 0 0.6 0.1 1.3 0.1 0.6 0.3 1.2 0.2 0.6 0.5 1.2 0.3 0.5 0.7 1 0.3 0.4 0.8 0.8 0.4 0.3 0.9 0.6 0.6 0.2 1.1 0.3 0.6 0.2 1.2 0.2 0.4 0 0.9-0.1 0.5-0.1 1-0.2 0.5-0.2 0.9-0.4 0.4-0.2 0.8-0.5 0.4-0.4 0.8-0.9 0.3-0.5 0.6-1 0.2-0.6 0.4-1.2 0.1-0.5 0.1-1.1h0.2l-0.3 3q-0.4 0.7-1 1.3-0.6 0.6-1.3 1-0.7 0.3-1.5 0.5-0.8 0.2-1.6 0.1-0.7 0.1-1.4-0.1-0.7-0.1-1.4-0.3-0.6-0.3-1.2-0.7-0.6-0.3-1.1-0.8z"/>
				<path id="Path_391" fill-rule="evenodd" class="s0" d="m83.6 21.7h0.1v0.2h-4.4v-0.2h0.2q0.1 0 0.2 0 0.1 0 0.1-0.1 0.1 0 0.2-0.1 0.1 0 0.1-0.1 0.1 0 0.1-0.1 0-0.1 0.1-0.1 0-0.1 0-0.2 0 0 0-0.1 0-0.1 0-0.1 0-0.1 0-0.1 0-0.1 0-0.1 0-0.1-0.1-0.2l-1.2-3.3h-5.3l-1.3 3.4q0 0 0 0.1 0 0 0 0.1-0.1 0-0.1 0.1 0 0.1 0 0.1 0 0.1 0.1 0.2 0 0 0 0.1 0 0 0.1 0.1 0 0.1 0 0.1 0.1 0.1 0.2 0.1 0 0.1 0.1 0.1 0.1 0 0.2 0.1 0.1 0 0.2 0h0.1v0.2h-3.9v-0.2h0.2q0.1 0 0.2-0.1 0.2 0 0.3 0 0.1-0.1 0.2-0.1 0.1-0.1 0.2-0.1 0.2-0.1 0.3-0.2 0.1-0.1 0.2-0.2 0.1-0.2 0.2-0.3 0-0.1 0.1-0.3l4.4-10.5q0.1-0.2 0.2-0.5 0.2-0.2 0.2-0.5 0.1-0.2 0.2-0.5 0.1-0.2 0.1-0.5h0.2l5.2 12.5q0.1 0.2 0.2 0.3 0.1 0.1 0.2 0.3 0 0.1 0.2 0.2 0.1 0.1 0.2 0.2 0.1 0 0.2 0.1 0.1 0 0.3 0.1 0.1 0 0.2 0.1 0.1 0 0.3 0zm-9.6-5.2h4.8l-2.4-6.2z"/>
				<path id="Path_392" class="s0" d="m92.9 9.9q0-0.2-0.1-0.4-0.1-0.2-0.3-0.4-0.1-0.1-0.3-0.2-0.2-0.1-0.5-0.1h-3.7v11.7q0 0.1 0.1 0.2 0 0.1 0 0.2 0.1 0.1 0.2 0.2 0 0.1 0.1 0.2 0.1 0.1 0.2 0.2 0.1 0 0.2 0.1 0.1 0 0.2 0.1 0.2 0 0.3 0h0.2v0.2h-4.2v-0.2h0.2q0.2 0 0.5-0.1 0.2-0.1 0.4-0.3 0.1-0.1 0.2-0.4 0.1-0.2 0.2-0.4v-11.7h-3.8q-0.1 0-0.2 0-0.1 0-0.2 0.1-0.1 0-0.2 0.1-0.1 0-0.2 0.1 0 0.1-0.1 0.2-0.1 0.1-0.1 0.2 0 0.1-0.1 0.2 0 0.1 0 0.2v0.4h-0.2v-2.5q0.2 0.1 0.3 0.1 0.1 0 0.2 0.1 0.2 0 0.3 0 0.1 0 0.2 0.1 0.2 0 0.4 0 0.1 0 0.3 0 0.2 0 0.3 0.1 0.2 0 0.4 0h6.6q0.2 0 0.4 0 0.2 0 0.4-0.1 0.2 0 0.4 0 0.2 0 0.4-0.1 0.1 0 0.2 0 0.1 0 0.2-0.1 0.1 0 0.2 0 0-0.1 0.1-0.1v2.5h-0.2z"/>
				<path id="Path_393" fill-rule="evenodd" class="s0" d="m105.3 21.7h0.1v0.2h-4.4v-0.2h0.2q0.1 0 0.2 0 0.1 0 0.1-0.1 0.1 0 0.2-0.1 0.1 0 0.1-0.1 0.1 0 0.1-0.1 0-0.1 0.1-0.1 0-0.1 0-0.2 0 0 0-0.1 0-0.1 0-0.1 0-0.1 0-0.1 0-0.1 0-0.1 0-0.1-0.1-0.2l-1.2-3.3h-5.3l-1.3 3.4q0 0 0 0.1 0 0-0.1 0.1 0 0 0 0.1 0 0.1 0 0.1 0 0.1 0 0.2 0.1 0 0.1 0.1 0 0 0 0.1 0.1 0.1 0.1 0.1 0.1 0.1 0.2 0.1 0 0.1 0.1 0.1 0.1 0 0.2 0.1 0.1 0 0.1 0h0.2v0.2h-3.9v-0.2h0.2q0.1 0 0.2-0.1 0.2 0 0.3 0 0.1-0.1 0.2-0.1 0.1-0.1 0.2-0.1 0.2-0.1 0.3-0.2 0.1-0.1 0.2-0.2 0.1-0.2 0.1-0.3 0.1-0.1 0.2-0.3l4.4-10.5q0.1-0.2 0.2-0.5 0.2-0.2 0.2-0.5 0.1-0.2 0.2-0.5 0.1-0.2 0.1-0.5h0.2l5.2 12.5q0.1 0.2 0.2 0.3 0.1 0.1 0.1 0.3 0.1 0.1 0.3 0.2 0.1 0.1 0.2 0.2 0.1 0 0.2 0.1 0.1 0.1 0.3 0.1 0.1 0 0.2 0.1 0.1 0 0.3 0zm-9.7-5.2h4.9l-2.4-6.2z"/>
				<path id="Path_394" class="s0" d="m105.8 21.7q0.2 0 0.3 0 0.1-0.1 0.2-0.1 0.1-0.1 0.2-0.1 0.1-0.1 0.2-0.2 0.1-0.1 0.2-0.2 0-0.1 0.1-0.2 0-0.1 0.1-0.2 0-0.1 0-0.3v-10.8q0-0.1 0-0.2-0.1-0.1-0.1-0.3-0.1-0.1-0.1-0.2-0.1-0.1-0.2-0.2-0.1 0-0.2-0.1-0.1-0.1-0.2-0.1-0.1-0.1-0.2-0.1-0.1 0-0.3 0h-0.2v-0.2h4.3v0.2h-0.3q-0.2 0-0.5 0.1-0.2 0.1-0.4 0.2-0.1 0.2-0.2 0.4-0.1 0.3-0.1 0.5v11.7h2.8q0.3 0 0.5-0.1 0.3 0 0.6-0.1 0.3 0 0.6-0.2 0.2-0.1 0.5-0.3 0.2-0.2 0.4-0.4 0.2-0.2 0.3-0.5 0.2-0.2 0.3-0.5 0.1-0.2 0.2-0.5h0.2l-1.1 3.2h-8.1v-0.2z"/>
				<path id="Path_395" class="s0" d="m125.6 8.4h-0.3q-0.1 0-0.2 0-0.2 0-0.3 0.1-0.2 0-0.3 0.1-0.1 0-0.3 0.1-0.1 0.1-0.2 0.2-0.1 0.1-0.2 0.2-0.1 0.1-0.2 0.2-0.1 0.1-0.2 0.2l-3.9 6.3v4.6q0 0.2 0 0.3 0.1 0.1 0.1 0.2 0.1 0.1 0.1 0.2 0.1 0.1 0.2 0.2 0.1 0.1 0.2 0.2 0.1 0 0.2 0.1 0.1 0 0.2 0.1 0.1 0 0.3 0h0.2v0.2h-4.3v-0.2h0.3q0.1 0 0.2 0 0.2-0.1 0.3-0.1 0.1-0.1 0.2-0.1 0.1-0.1 0.2-0.2 0.1-0.1 0.1-0.2 0.1-0.1 0.1-0.2 0.1-0.1 0.1-0.2 0-0.1 0-0.2v-4.8l-3.7-6.2q-0.1-0.1-0.2-0.2-0.1-0.1-0.2-0.2-0.1-0.1-0.2-0.2-0.1-0.1-0.2-0.2-0.1-0.1-0.3-0.1-0.1-0.1-0.3-0.1-0.1-0.1-0.2-0.1-0.2 0-0.3 0h-0.3v-0.2h4.8v0.2h-0.3q-0.1 0-0.2 0-0.1 0-0.1 0.1-0.1 0-0.2 0.1-0.1 0.1-0.1 0.2 0 0-0.1 0.1 0 0 0 0.1 0 0 0 0.1 0 0 0 0.1 0 0 0 0.1 0 0 0 0.1 0 0 0 0.1 0 0 0.1 0.1l2.9 5.5 3.1-5.5q0-0.1 0.1-0.1 0-0.1 0-0.1 0-0.1 0-0.1 0-0.1 0-0.1 0-0.1 0-0.1 0-0.1 0-0.1 0-0.1-0.1-0.1 0-0.1 0-0.1-0.1-0.1-0.1-0.2-0.1-0.1-0.2-0.1-0.1-0.1-0.2-0.1-0.1 0-0.2 0h-0.2v-0.2h4.3z"/>
				<path id="Path_396" class="s0" d="m137.3 9.9q0-0.2-0.1-0.4-0.1-0.2-0.2-0.4-0.2-0.2-0.4-0.3-0.2-0.1-0.4-0.1h-3.7v11.7q0 0.2 0 0.3 0 0.1 0.1 0.2 0 0.1 0.1 0.2 0.1 0.1 0.2 0.2 0.1 0.1 0.2 0.1 0.1 0.1 0.2 0.2 0.1 0 0.2 0 0.1 0 0.2 0h0.3v0.2h-4.3v-0.2h0.3q0.2 0 0.4 0 0.3-0.1 0.4-0.3 0.2-0.2 0.3-0.4 0.1-0.2 0.1-0.4v-11.8h-3.7q-0.1 0-0.2 0.1-0.1 0-0.2 0-0.1 0.1-0.2 0.1-0.1 0.1-0.2 0.2-0.1 0.1-0.1 0.2-0.1 0.1-0.1 0.2-0.1 0.1-0.1 0.2 0 0.1 0 0.2v0.3l-0.2 0.1v-2.5q0.1 0 0.2 0.1 0.2 0 0.3 0 0.1 0.1 0.3 0.1 0.1 0 0.2 0 0.2 0.1 0.3 0.1 0.2 0 0.4 0 0.1 0 0.3 0 0.2 0 0.3 0h6.6q0.2 0 0.4 0 0.2 0 0.4 0 0.2 0 0.4 0 0.2-0.1 0.4-0.1 0.1 0 0.2 0 0.1-0.1 0.2-0.1 0.1 0 0.2-0.1 0.1 0 0.2 0v2.5l-0.2-0.1z"/>
				<path id="Path_397" class="s0" d="m138.5 21.7q0.2 0 0.3 0 0.1-0.1 0.2-0.1 0.1-0.1 0.2-0.1 0.1-0.1 0.2-0.2 0.1-0.1 0.2-0.2 0-0.1 0.1-0.2 0-0.1 0.1-0.2 0-0.1 0-0.3v-10.8q0-0.1 0-0.2-0.1-0.2-0.1-0.3-0.1-0.1-0.1-0.2-0.1-0.1-0.2-0.2-0.1-0.1-0.2-0.1-0.1-0.1-0.2-0.1-0.1-0.1-0.2-0.1-0.1 0-0.3 0h-0.2v-0.2h4.3v0.2h-0.3q-0.1 0-0.2 0-0.2 0-0.3 0.1-0.1 0-0.2 0.1-0.1 0-0.2 0.1-0.1 0.1-0.1 0.2-0.1 0.1-0.1 0.2-0.1 0.1-0.1 0.3 0 0.1 0 0.2v10.8q0 0.2 0 0.3 0 0.1 0 0.2 0.1 0.1 0.2 0.2 0 0.1 0.1 0.2 0.1 0.1 0.2 0.2 0.1 0 0.2 0.1 0.1 0 0.3 0.1 0.1 0 0.2 0h0.3v0.2h-4.3v-0.2z"/>
				<path id="Path_398" class="s0" d="m145.7 20.2c-1.1-1-1.8-2.3-2.1-3.7-0.3-1.4-0.2-2.9 0.4-4.2 0.6-1.4 1.5-2.5 2.7-3.3 1.2-0.7 2.7-1.1 4.1-1.1q0.6 0 1.2 0.1 0.6 0.1 1.2 0.2 0.6 0.2 1.2 0.5 0.5 0.2 1 0.5l0.4 2.8h-0.1q-0.1-0.4-0.3-0.8-0.2-0.3-0.4-0.7-0.2-0.3-0.5-0.6-0.3-0.3-0.6-0.5-0.3-0.2-0.7-0.4-0.4-0.2-0.8-0.3-0.4-0.1-0.8-0.2-0.4 0-0.8 0-0.6 0-1.1 0.1-0.6 0.1-1.1 0.3-0.6 0.3-1 0.6-0.5 0.3-0.9 0.8-0.4 0.5-0.7 1-0.3 0.6-0.5 1.2-0.2 0.6-0.3 1.2-0.1 0.7 0 1.3-0.1 0.6 0 1.3 0.1 0.6 0.3 1.2 0.2 0.6 0.5 1.2 0.3 0.5 0.7 1 0.4 0.4 0.8 0.8 0.5 0.3 1 0.6 0.5 0.2 1.1 0.3 0.5 0.2 1.1 0.2 0.5 0 1-0.1 0.5-0.1 0.9-0.2 0.5-0.2 0.9-0.4 0.5-0.2 0.8-0.5 0.5-0.4 0.8-0.9 0.4-0.5 0.6-1 0.3-0.6 0.4-1.2 0.1-0.5 0.2-1.1h0.1l-0.2 3q-0.4 0.7-1 1.3-0.6 0.6-1.4 1-0.7 0.3-1.5 0.5-0.8 0.2-1.6 0.1-0.7 0.1-1.4-0.1-0.7-0.1-1.3-0.3-0.7-0.3-1.3-0.7-0.5-0.3-1-0.8z"/>
			</g>
			<g id="Group_498">
				<path id="Path_399" class="s1" d="m77.6 29.7h0.1v0.1h-1.3v-0.1h0.1q0 0 0 0 0.1 0 0.1 0 0 0 0 0 0 0 0.1-0.1 0 0 0 0 0 0 0 0 0-0.1 0-0.1 0 0 0 0l-0.2-3.1-1.3 2.8q-0.1 0.1-0.1 0.2 0 0.1 0 0.1-0.1 0.1-0.1 0.2 0 0.1 0 0.2h-0.1l-1.5-3.4-0.3 3q0 0 0 0.1 0 0 0.1 0 0 0.1 0 0.1 0.1 0 0.1 0h0.1v0.1h-1.2v-0.1h0.1q0.1 0 0.1 0 0.1 0 0.1 0 0 0 0.1 0 0-0.1 0-0.1 0.1 0 0.1 0 0-0.1 0-0.1 0.1 0 0.1-0.1 0 0 0-0.1l0.4-3.9h0.1l1.7 3.7 1.6-3.7h0.1l0.5 3.9q0 0.1 0 0.1 0 0.1 0 0.1 0.1 0.1 0.1 0.1 0.1 0 0.1 0.1 0 0 0.1 0 0 0 0 0 0 0 0.1 0 0 0 0 0z"/>
				<path id="Path_400" fill-rule="evenodd" class="s2" d="m85.2 29.7v0.1h-1.3v-0.1q0.1 0 0.1 0 0 0 0 0 0.1 0 0.1 0 0 0 0-0.1 0 0 0 0 0.1 0 0.1 0 0-0.1 0-0.1 0 0 0 0 0 0 0-0.1 0 0 0 0 0 0 0 0 0-0.1 0-0.1l-0.4-1h-1.7l-0.4 1q0 0.1 0 0.1 0 0 0 0 0 0 0 0 0 0.1 0 0.1 0 0 0 0 0 0 0 0.1 0 0 0 0 0 0 0.1 0 0 0.1 0 0.1 0 0 0 0 0.1 0 0.1 0 0 0 0.1 0v0.1h-1.2v-0.1q0.1 0 0.1 0 0.1 0 0.1 0 0 0 0.1 0 0-0.1 0-0.1 0.1 0 0.1 0 0.1-0.1 0.1-0.1 0 0 0-0.1 0.1 0 0.1-0.1l1.4-3.2q0-0.1 0-0.2 0.1-0.1 0.1-0.1 0-0.1 0-0.2 0.1-0.1 0.1-0.2l1.7 3.9q0 0.1 0 0.1 0 0.1 0.1 0.1 0 0 0 0.1 0.1 0 0.1 0 0 0 0.1 0.1 0 0 0 0 0.1 0 0.1 0 0.1 0 0.1 0zm-3-1.6h1.5l-0.7-1.9z"/>
				<path id="Path_401" class="s3" d="m88.6 29.5q0 0 0-0.1 0 0 0 0 0-0.1 0-0.1 0-0.1 0-0.1 0-0.1 0-0.1 0-0.1 0-0.2 0 0 0-0.1 0-0.1 0-0.1h0.1q0 0 0 0.1 0 0.1 0 0.2 0 0.1 0 0.1 0.1 0.1 0.1 0.2 0.1 0.1 0.1 0.1 0.1 0.1 0.1 0.1 0.1 0.1 0.2 0.1 0.1 0.1 0.2 0.1 0 0 0.1 0 0.1 0 0.2 0 0.1 0 0.2-0.1 0 0 0.1 0 0.1-0.1 0.1-0.2 0.1 0 0.2-0.1 0 0 0-0.1 0.1-0.1 0.1-0.2 0-0.1 0-0.1 0-0.1 0-0.2 0-0.1-0.1-0.1 0-0.1 0-0.2-0.1 0-0.1-0.1l-1.2-1.1q-0.1-0.1-0.2-0.1 0-0.1-0.1-0.2 0-0.1 0-0.2 0-0.1 0-0.2 0-0.1 0-0.2 0-0.1 0-0.2 0.1-0.1 0.1-0.2 0.1-0.1 0.1-0.2 0.1 0 0.2-0.1 0.1-0.1 0.2-0.1 0.1 0 0.2 0 0.1-0.1 0.2-0.1 0.1 0 0.2 0 0 0 0.1 0.1 0.1 0 0.1 0 0.1 0 0.2 0h0.2v0.7h-0.1q0 0 0-0.1 0 0 0-0.1 0-0.1-0.1-0.1 0-0.1-0.1-0.1 0-0.1-0.1-0.1 0 0-0.1 0-0.1-0.1-0.1-0.1-0.1 0-0.2 0 0 0-0.1 0-0.1 0-0.2 0.1 0 0-0.1 0 0 0.1-0.1 0.1 0 0.1-0.1 0.1 0 0.1-0.1 0.2 0 0 0 0.1 0 0.1 0 0.1 0 0.1 0 0.2 0 0.1 0.1 0.1 0 0.1 0 0.2 0.1 0 0.1 0.1l1.2 1.1q0.1 0.1 0.2 0.1 0 0.1 0.1 0.2 0 0.1 0 0.2 0 0.1 0 0.2 0 0.2 0 0.3 0 0.1 0 0.2-0.1 0.1-0.1 0.2-0.1 0.1-0.2 0.1-0.1 0.1-0.1 0.2-0.1 0-0.2 0.1-0.2 0-0.3 0-0.1 0.1-0.2 0.1-0.1 0-0.1 0-0.1-0.1-0.2-0.1-0.1 0-0.1 0-0.1 0-0.2 0 0 0-0.1-0.1-0.1 0-0.1 0-0.1 0-0.1-0.1-0.1 0-0.1-0.1z"/>
				<path id="Path_402" class="s4" d="m97.7 26.1q0-0.1 0-0.2-0.1 0-0.1-0.1-0.1 0-0.1-0.1-0.1 0-0.1 0h-1.2v3.6q0 0.1 0 0.1 0 0 0 0.1 0 0 0.1 0 0 0.1 0 0.1 0 0 0.1 0.1 0 0 0 0 0.1 0 0.1 0 0 0 0.1 0h0.1v0.1h-1.4v-0.1h0.1q0.1 0 0.2 0 0 0 0.1-0.1 0 0 0.1-0.1 0-0.1 0-0.2v-3.6h-1.2q0 0 0 0-0.1 0-0.1 0 0 0 0 0.1-0.1 0-0.1 0 0 0 0 0.1-0.1 0-0.1 0 0 0.1 0 0.1 0 0 0 0.1v0.1h-0.1v-0.8q0.1 0 0.1 0 0.1 0 0.1 0.1 0 0 0.1 0 0 0 0.1 0 0 0 0.1 0 0 0 0.1 0 0 0 0.1 0 0 0 0.1 0h2q0.1 0 0.1 0 0.1 0 0.2 0 0 0 0.1 0 0.1 0 0.1 0 0 0 0.1 0 0-0.1 0-0.1 0.1 0 0.1 0 0 0 0.1 0v0.8h-0.1z"/>
				<path id="Path_403" class="s5" d="m101.4 29.7q0 0 0 0 0.1 0 0.1 0 0 0 0.1 0 0-0.1 0-0.1 0.1 0 0.1-0.1 0 0 0 0 0-0.1 0-0.1 0 0 0-0.1v-3.4q0 0 0 0 0-0.1 0-0.1 0 0 0-0.1-0.1 0-0.1 0 0 0 0-0.1-0.1 0-0.1 0 0 0-0.1 0 0 0 0 0h-0.1v-0.1h1.8q0 0 0.1 0 0 0 0.1 0 0 0 0.1 0 0 0 0.1 0 0 0 0 0 0.1 0 0.1 0 0.1-0.1 0.1-0.1 0 0 0.1 0v0.8h-0.1v-0.1q0-0.1 0-0.2 0 0-0.1-0.1 0 0-0.1-0.1-0.1 0-0.1 0h-1.3v1.9h1.1q0 0 0 0 0 0 0.1 0 0 0 0-0.1 0 0 0.1 0 0 0 0 0 0-0.1 0-0.1 0 0 0-0.1 0.1 0 0.1 0v-0.1 1-0.1q0-0.1-0.1-0.1 0 0 0 0 0-0.1 0-0.1 0 0 0 0 0-0.1-0.1-0.1 0 0 0 0 0 0-0.1 0 0 0 0 0h-1.1v1.8h0.9q0.1 0 0.2 0 0.1 0 0.2 0 0.1-0.1 0.1-0.1 0.1-0.1 0.2-0.1 0.1-0.1 0.1-0.1 0.1-0.1 0.1-0.2 0.1-0.1 0.1-0.1 0.1-0.1 0.1-0.2l-0.3 1h-2.5v-0.1z"/>
				<path id="Path_404" class="s6" d="m109 25.7h-0.4v3.6q0 0.1 0 0.1 0 0 0 0.1 0.1 0 0.1 0 0 0.1 0 0.1 0.1 0 0.1 0.1 0 0 0.1 0 0 0 0 0 0.1 0 0.1 0h0.1v0.1h-1.3v-0.1q0.1 0 0.1 0 0 0 0.1 0 0 0 0 0 0.1-0.1 0.1-0.1 0 0 0.1-0.1 0 0 0 0 0-0.1 0-0.1 0 0 0-0.1v-3.3q0-0.1 0-0.1 0 0 0-0.1 0 0 0 0-0.1-0.1-0.1-0.1 0 0-0.1-0.1 0 0 0 0-0.1 0-0.1 0 0 0-0.1 0v-0.1h1.6q0.1 0 0.2 0 0.1 0.1 0.3 0.1 0.1 0 0.2 0.1 0.1 0.1 0.2 0.1 0 0.1 0.1 0.2 0.1 0.1 0.1 0.2 0 0.1 0.1 0.2 0 0.1 0 0.2 0 0.1 0 0.3-0.1 0.1-0.1 0.2 0 0.1-0.1 0.2 0 0.1-0.1 0.2-0.1 0.1-0.2 0.1-0.1 0.1-0.1 0.1-0.1 0.1-0.2 0.1-0.1 0-0.3 0 0.1 0 0.1 0.1 0 0 0.1 0 0 0 0 0 0 0.1 0.1 0.1 0 0 0 0.1 0 0 0.1 0 0 0.1 0 0.1 0.1 0 0.1 0.1 0.5 0.7 0.7 0.9 0.1 0.1 0.2 0.2 0 0 0 0 0 0.1 0.1 0.1 0 0 0 0 0 0 0 0 0.1 0.1 0.1 0.1 0 0 0 0 0 0 0.1 0 0 0 0 0 0 0.1 0.1 0.1 0 0 0.1 0 0 0 0.1 0 0 0 0.1 0v0.1h-0.4q0 0-0.1 0-0.1 0-0.1 0-0.1-0.1-0.1-0.1-0.1 0-0.2 0 0 0 0 0-0.1-0.1-0.1-0.1-0.1 0-0.1 0-0.1-0.1-0.1-0.1 0 0 0-0.1-0.1 0-0.1 0 0 0 0 0-0.1-0.1-0.1-0.1-0.1-0.1-0.4-0.6-0.4-0.6-0.5-0.6 0-0.1-0.1-0.2 0 0-0.1-0.1 0 0-0.1 0 0-0.1-0.1-0.1 0 0-0.1 0v-0.1q0 0 0 0 0.1 0 0.1 0 0 0 0 0 0 0 0 0 0.1 0 0.2 0 0.2 0.1 0.3 0 0.2 0 0.3-0.1 0.2-0.1 0.2-0.2 0.1-0.1 0.2-0.3 0 0 0 0 0-0.1 0-0.1 0 0 0-0.1 0 0 0 0v-0.2q0 0 0-0.1 0-0.1 0-0.2-0.1-0.1-0.1-0.2 0 0-0.1-0.1 0-0.1-0.1-0.1-0.1-0.1-0.1-0.1-0.1 0-0.2-0.1-0.1 0-0.1 0-0.2 0-0.4 0z"/>
				<path id="Path_405" class="s7" d="m119.9 29.7h0.1v0.1h-1.4v-0.1h0.1q0 0 0.1 0 0 0 0 0 0 0 0.1 0 0 0 0-0.1 0 0 0 0 0 0 0 0 0.1-0.1 0.1-0.1 0 0 0 0l-0.3-3.1-1.3 2.8q0 0.1-0.1 0.2 0 0.1 0 0.1 0 0.1-0.1 0.2 0 0.1 0 0.2h-0.1l-1.5-3.4-0.3 3q0 0 0 0.1 0.1 0 0.1 0 0 0.1 0.1 0.1 0 0 0.1 0h0.1v0.1h-1.2v-0.1h0.1q0 0 0.1 0 0 0 0 0 0.1 0 0.1 0 0-0.1 0.1-0.1 0 0 0 0 0.1-0.1 0.1-0.1 0 0 0-0.1 0 0 0-0.1l0.5-3.9 1.7 3.7 1.7-3.7 0.5 3.9q0 0.1 0 0.1 0.1 0.1 0.1 0.1 0 0.1 0.1 0.1 0 0 0.1 0.1 0 0 0 0 0 0 0 0 0.1 0 0.1 0 0 0 0.1 0z"/>
				<path id="Path_406" class="s8" d="m123.5 29.7q0.1 0 0.1 0 0 0 0.1 0 0 0 0 0 0.1-0.1 0.1-0.1 0 0 0-0.1 0.1 0 0.1 0 0-0.1 0-0.1 0 0 0-0.1v-3.3q0-0.1 0-0.1 0 0 0-0.1 0 0-0.1 0 0-0.1 0-0.1 0 0-0.1-0.1 0 0 0 0-0.1 0-0.1 0 0 0-0.1 0h-0.1v-0.1h1.4v0.1h-0.1q0 0-0.1 0 0 0-0.1 0 0 0 0 0-0.1 0.1-0.1 0.1 0 0 0 0.1 0 0-0.1 0 0 0.1 0 0.1 0 0 0 0.1v3.3q0 0.1 0 0.1 0 0 0 0.1 0 0 0.1 0 0 0.1 0 0.1 0 0 0.1 0.1 0 0 0 0 0.1 0 0.1 0 0.1 0 0.1 0h0.1v0.1h-1.4v-0.1z"/>
				<path id="Path_407" class="s9" d="m132.9 25.6q0 0-0.1 0 0 0 0 0-0.1 0-0.1 0 0 0.1-0.1 0.1 0 0 0 0 0 0.1-0.1 0.1 0 0 0 0.1 0 0 0 0v3.2q0 0.1 0 0.2 0 0 0 0.1 0 0.1 0 0.2 0 0.1 0.1 0.2v0.1h-0.1l-3.3-3.6v3q0 0.1 0 0.1 0 0.1 0.1 0.1 0 0.1 0 0.1 0 0 0.1 0.1 0 0 0 0 0.1 0 0.1 0 0 0 0 0 0.1 0 0.1 0h0.1v0.1h-1.3v-0.1h0.2q0 0 0 0 0.1 0 0.1 0 0 0 0.1 0 0-0.1 0-0.1 0 0 0.1 0 0-0.1 0-0.1 0 0 0-0.1 0 0 0-0.1v-3.1q0-0.1 0-0.2 0-0.1 0-0.1 0-0.1 0-0.2 0-0.1 0-0.2v-0.1l3.3 3.6v-3q0-0.1 0-0.1 0 0 0-0.1 0 0 0 0 0-0.1-0.1-0.1 0 0 0 0-0.1-0.1-0.1-0.1 0 0-0.1 0 0 0 0 0h-0.1v-0.1h1.2v0.1z"/>
				<path id="Path_408" fill-rule="evenodd" class="s10" d="m140.2 26.1q0.3 0.3 0.5 0.7 0.1 0.4 0.2 0.8-0.1 0.5-0.2 0.9-0.2 0.4-0.5 0.7-0.1 0.1-0.3 0.3-0.2 0.1-0.4 0.1-0.2 0.1-0.4 0.2-0.2 0-0.4 0h-2.1v-0.1h0.1q0 0 0.1 0 0 0 0 0 0.1 0 0.1 0 0-0.1 0.1-0.1 0 0 0-0.1 0 0 0 0 0.1-0.1 0.1-0.1 0 0 0-0.1v-3.4q0 0 0 0 0-0.1-0.1-0.1 0 0 0-0.1 0 0 0 0-0.1 0-0.1-0.1 0 0-0.1 0 0 0 0 0-0.1 0-0.1 0h-0.1v-0.1h2.1q0.2 0 0.4 0 0.2 0.1 0.4 0.2 0.2 0 0.4 0.1 0.2 0.2 0.3 0.3zm-2.7-0.4v3.9h1.2q0.1 0 0.2 0 0.1 0 0.2-0.1 0.2 0 0.3 0 0.1-0.1 0.2-0.1 0.1-0.1 0.2-0.2 0-0.1 0.1-0.1 0.1-0.1 0.2-0.2 0-0.1 0.1-0.2 0-0.1 0.1-0.3 0-0.1 0-0.2 0.1-0.2 0.1-0.3 0-0.1 0-0.2 0-0.2 0-0.4 0-0.2-0.1-0.4-0.1-0.2-0.2-0.3-0.1-0.2-0.2-0.4-0.1-0.1-0.2-0.2-0.2-0.1-0.3-0.2-0.2 0-0.4-0.1-0.2 0-0.3 0z"/>
			</g>
		</g>
		<g id="Group_500">
			<path id="Path_409" class="s11" d="m48.4 31.4v0.3q-0.3 0-0.5 0.1-0.2 0-0.4 0-0.2 0-0.4 0-0.3 0-0.5 0-0.3 0-0.6 0-0.3-0.1-0.6-0.1-0.3-0.1-0.6-0.1-0.3-0.1-0.6-0.2-0.1-0.1-0.3-0.1-0.2-0.1-0.4-0.2-0.1 0-0.3-0.1-0.2-0.1-0.3-0.2-0.2-0.1-0.4-0.2-0.1-0.1-0.2-0.2-0.1-0.1-0.2-0.2-0.1-0.1-0.2-0.2-0.1-0.1-0.2-0.2-0.6-0.6-1.1-1.3-0.5-0.7-0.8-1.5-0.4-0.7-0.6-1.6-0.3-0.8-0.3-1.6l-1.7-12.4-5.8 13.1q-0.2 0.3-0.4 0.7-0.1 0.3-0.2 0.7-0.1 0.3-0.2 0.7-0.1 0.3-0.2 0.7h-0.3l-7.2-15.7-1.2 13.9q0 0.1 0 0.2 0 0.1 0 0.2 0.1 0.1 0.1 0.2 0.1 0.1 0.2 0.2 0.1 0.1 0.1 0.2 0.1 0 0.2 0.1 0.1 0 0.2 0 0.1 0.1 0.2 0.1h0.5v0.2h-5.4v-0.3h0.4q0.2 0 0.4 0 0.2 0 0.3-0.1 0.2 0 0.4-0.1 0.1-0.1 0.3-0.2 0.1-0.1 0.2-0.3 0.1-0.1 0.2-0.3 0.1-0.1 0.2-0.3 0-0.2 0.1-0.3l1.7-15.2q-0.2-0.6-0.6-1.2-0.3-0.6-0.7-1.1-0.4-0.5-0.9-0.9-0.5-0.5-1-0.9-0.3-0.1-0.6-0.3-0.3-0.2-0.7-0.3-0.3-0.1-0.7-0.1-0.3-0.1-0.6-0.1-0.2 0-0.3 0-0.2 0-0.4 0.1v-0.3q0.1 0 0.2-0.1 0.1 0 0.2 0 0.1 0 0.2-0.1 0.2 0 0.3 0 0.6-0.5 1.2-0.9 0.2-0.2 0.5-0.3 0.2-0.2 0.4-0.3 0.3-0.2 0.5-0.3 0.3-0.2 0.5-0.3 1.1-0.6 2.3-1.1 1.2-0.4 2.5-0.7 1.2-0.3 2.5-0.5 1.3-0.1 2.6-0.1 0.9 0 1.8 0.1 0.8 0 1.7 0.1 0.9 0.2 1.8 0.3 0.8 0.2 1.7 0.4 0.8 0.2 1.5 0.5 0.8 0.2 1.6 0.5 0.7 0.4 1.4 0.7 0.7 0.4 1.4 0.8l1 7.2h-0.4q-0.3-1.1-0.7-2-0.5-1-1.1-1.9-0.6-0.8-1.4-1.5-0.8-0.7-1.7-1.3-1-0.6-2-1-1-0.5-2.1-0.8-1.1-0.3-2.2-0.5-1.1-0.1-2.3-0.1-1.2 0-2.3 0.2-1.2 0.1-2.4 0.5-1.1 0.3-2.2 0.9-1.1 0.5-2 1.2-0.5 0.3-0.9 0.7 0.1 0 0.2 0.1 0.2 0 0.3 0.1 0.1 0.1 0.2 0.1 0.1 0.1 0.2 0.1 0.3 0.2 0.6 0.5 0.3 0.2 0.5 0.4 0.3 0.2 0.5 0.5 0.3 0.3 0.5 0.6 0.2 0.2 0.3 0.4 0.2 0.2 0.4 0.5 0.1 0.2 0.3 0.5 0.1 0.2 0.2 0.5l6.7 14.5 7.5-16.8h0.3l2.6 16.5q0 0.8 0.2 1.6 0.2 0.8 0.6 1.6 0.3 0.7 0.7 1.4 0.5 0.7 1 1.3 0 0.1 0.1 0.1 0.3-0.3 0.6-0.7 3.3-4.6 3.3-11.7h0.5q0.1 0.6 0.1 1.2 0 1.5-0.1 3-0.2 1.4-0.5 2.9-0.4 1.4-1 2.8-0.5 1.3-1.3 2.6-0.3 0.4-0.5 0.8 0.3 0.3 0.8 0.5 0.4 0.1 0.8 0.3 0.5 0.1 0.9 0.2 0.5 0 0.9 0z"/>
			<path id="Path_410" class="s0" d="m33.6 35.1q1.5-0.3 3-0.8 1.4-0.5 2.7-1.3 1.4-0.8 2.5-1.8 0.2 0.1 0.4 0.2 0.1 0.2 0.3 0.3 0.2 0.1 0.3 0.2 0.2 0 0.4 0.1-4.7 4.8-13.1 4.8-1.3 0-2.7-0.2-1.3-0.1-2.6-0.4-1.4-0.3-2.6-0.8-1.3-0.4-2.5-1.1-1.1-0.5-2.1-1.2-1-0.7-1.9-1.6-0.9-0.8-1.7-1.8-0.8-0.9-1.5-2c-0.9-1.7-1.7-3.5-2.1-5.4-0.4-1.9-0.5-3.9-0.3-5.8 0.2-2 0.7-3.9 1.5-5.6 0.8-1.8 1.9-3.5 3.2-4.9l0.8-0.1q0.3 0 0.5 0 0.3 0 0.6 0 0.2 0.1 0.5 0.1 0.2 0.1 0.5 0.2 0.2 0.1 0.4 0.2c-1.4 1.7-2.5 3.6-3.2 5.7-0.8 2-1.1 4.2-1.1 6.4 0 2.2 0.4 4.3 1.2 6.3 0.8 2.1 2 4 3.4 5.6q1.2 1.2 2.6 2.1 1.4 1 2.9 1.6 1.6 0.6 3.3 0.9 1.6 0.3 3.3 0.3 1.6 0 3.1-0.2z"/>
			<path id="Path_411" class="s12" d="m41.8 31.2q-1.3 1.4-2.8 2.5-1.6 1.1-3.4 1.8-1.8 0.7-3.7 1-1.8 0.3-3.7 0.2-0.2 0-0.3 0-0.6-0.1-1.2-0.2h-0.3q-0.8-0.1-1.6-0.4c-3.1-0.8-5.8-2.4-8-4.7-2.1-2.2-3.7-5-4.3-8.1-0.7-3.1-0.6-6.2 0.4-9.2 1-3 2.8-5.6 5.2-7.7-1.4 1.7-2.5 3.6-3.2 5.7-0.8 2-1.1 4.2-1.1 6.4 0 2.2 0.4 4.3 1.2 6.3 0.8 2.1 2 4 3.4 5.6q1.2 1.2 2.6 2.1 1.4 1 2.9 1.6 1.6 0.6 3.3 0.9 1.6 0.3 3.3 0.3 1.6 0 3.1-0.2 1.5-0.3 3-0.8 1.4-0.5 2.7-1.3 1.4-0.8 2.5-1.8z"/>
			<path id="Path_412" class="s13" d="m43.3 10.6h-0.4q-0.3-1.1-0.7-2-0.5-1-1.1-1.9-0.6-0.8-1.4-1.5-0.8-0.7-1.7-1.3-1-0.6-2-1-1-0.5-2.1-0.8-1.1-0.3-2.2-0.5-1.1-0.1-2.3-0.1-1.2 0-2.3 0.2-1.2 0.1-2.4 0.5-1.1 0.3-2.2 0.9-1.1 0.5-2 1.2-0.5 0.3-0.9 0.7l-1.3-0.8q1.6-1.1 3.5-1.9 1.9-0.7 3.9-1.1 1.9-0.4 3.9-0.5 2.1 0 4 0.4 1.3 0.3 2.5 0.7 1.2 0.4 2.4 1 1.1 0.5 2.1 1.3 1.1 0.7 2 1.5z"/>
			<path id="Path_413" class="s14" d="m23.2 26.7v0.2h-2.1q0-0.1-0.1-0.2 0-0.2-0.1-0.3 0-0.2 0-0.3-0.1-0.1-0.1-0.3c0-0.5 1.7-15.1 1.7-15.1l0.4 0.9-1.2 13.9q0 0.1 0 0.2 0 0.1 0 0.2 0.1 0.1 0.1 0.2 0.1 0.1 0.2 0.2 0.1 0.1 0.1 0.2 0.1 0 0.2 0.1 0.1 0 0.2 0 0.1 0.1 0.3 0.1z"/>
			<path id="Path_414" class="s15" d="m48.4 31.4v0.3q-0.3 0-0.5 0.1-0.2 0-0.4 0-0.2 0-0.4 0-0.3 0-0.5 0-0.3 0-0.6 0-0.3-0.1-0.6-0.1-0.3-0.1-0.6-0.1-0.3-0.1-0.6-0.2-0.1-0.1-0.3-0.1-0.2-0.1-0.4-0.2-0.1 0-0.3-0.1-0.2-0.1-0.3-0.2-0.2-0.1-0.4-0.2-0.1-0.1-0.2-0.2-0.1-0.1-0.2-0.2-0.1-0.1-0.2-0.2-0.1-0.1-0.2-0.2-0.6-0.6-1.1-1.3-0.5-0.7-0.8-1.5-0.4-0.7-0.6-1.6-0.3-0.8-0.3-1.6l-1.7-12.4 0.8-1.6c0 0 1.3 11.3 2.2 14.9 1 3.6 2.5 7 8.2 6.7z"/>
		</g>
	</g>
</svg>