<svg id="Logo_Two" data-name="Logo Two" xmlns="http://www.w3.org/2000/svg" xmlns:xlink="http://www.w3.org/1999/xlink" width="181.097" height="107.617" viewBox="0 0 181.097 107.617">
  <defs>
    <clipPath id="clip-path">
      <rect id="Rectangle_73" data-name="Rectangle 73" width="181.097" height="107.617" fill="#fff"/>
    </clipPath>
  </defs>
  <g id="Group_456" data-name="Group 456" clip-path="url(#clip-path)">
    <text id="Auto" transform="translate(0 99.269)" fill="#fff" font-size="33" font-family="Ubuntu-Bold, Ubuntu" font-weight="700"><tspan x="0" y="0">Auto</tspan></text>
    <text id="Repair" transform="translate(80.688 99.269)" fill="#fff" font-size="33" font-family="Ubuntu"><tspan x="0" y="0">Repair</tspan></text>
    <path id="Path_356" data-name="Path 356" d="M520.431,510.482c-18.448,0-33.408.8-33.408,1.79s14.96,1.789,33.408,1.789,33.407-.8,33.407-1.789-14.96-1.79-33.407-1.79" transform="translate(-429.883 -450.589)" fill="#fff" fill-rule="evenodd"/>
    <path id="Path_357" data-name="Path 357" d="M535.566,22.532c3-1.735,4.479-5.361,1.061-6.809-1.784-.76-4.777.165-5.72.533-.281-.8-.567-1.59-.858-2.381C526.565,4.258,520.859,1.284,513.85.5A97.657,97.657,0,0,0,494.315.477c-7.115.742-12.919,3.669-16.441,13.4-.292.791-.576,1.581-.857,2.381-.944-.368-3.938-1.293-5.721-.533-3.419,1.448-1.94,5.073,1.059,6.809-3.092,3.065-4.093,8.294-3.982,15.36a75.347,75.347,0,0,0,.815,11.776c.882,5.545,3.538,12.5,10.278,11.984,3.238-.25,6.292-2.205,5.756-6.134-.427-3.124-.392-2.815-.807-5.847,12.3.447,26.425.576,38.721,0-.412,3.032-.374,2.717-.8,5.847-.566,4.149,2.866,6.1,6.3,6.163,6.4.119,8.89-6.7,9.735-12.013a79.45,79.45,0,0,0,1.185-11.776c.112-7.065-.891-12.294-3.985-15.36M493.99,5.669a130.431,130.431,0,0,1,19.942,0c7.089.366,10.656,8.237,11.7,16.269H482.291c1.045-8.032,4.611-15.9,11.7-16.269m31.832,33.082h6.62a7.885,7.885,0,0,1-14.481-.19h-28a7.886,7.886,0,0,1-14.482.19H482.1a3.241,3.241,0,0,0,0-6.438h-6.624a7.886,7.886,0,0,1,14.484.193h28a7.885,7.885,0,0,1,14.482-.193h-6.621a3.241,3.241,0,0,0,0,6.438" transform="translate(-413.414 0)" fill="#fff" fill-rule="evenodd"/>
  </g>
</svg>
