<svg id="delete-icon" xmlns="http://www.w3.org/2000/svg" width="18.999" height="24.912" viewBox="0 0 18.999 24.912">
  <path id="Path_340" data-name="Path 340" d="M74.179,2.265A1.276,1.276,0,0,1,75.5.979h5.435a1.276,1.276,0,0,1,1.322,1.285V3.672h.979V2.265A2.256,2.256,0,0,0,80.936,0H75.5a2.256,2.256,0,0,0-2.3,2.265V3.672h.979Zm0,0" transform="translate(-68.719)" fill="#e7aa37"/>
  <path id="Path_341" data-name="Path 341" d="M30.182,141.322h11.58a2.085,2.085,0,0,0,1.983-2.2V124H28.2v15.118a2.085,2.085,0,0,0,1.983,2.2Zm8.912-14.984a.49.49,0,0,1,.979,0v11.568a.49.49,0,1,1-.979,0Zm-3.611,0a.49.49,0,0,1,.979,0v11.568a.49.49,0,1,1-.979,0Zm-3.611,0a.49.49,0,0,1,.979,0v11.568a.49.49,0,1,1-.979,0Zm0,0" transform="translate(-26.473 -116.41)" fill="#e7aa37"/>
  <path id="Path_342" data-name="Path 342" d="M1.224,70.448h16.55a1.224,1.224,0,1,0,0-2.448H1.224a1.224,1.224,0,1,0,0,2.448Zm0,0" transform="translate(0 -63.838)" fill="#e7aa37"/>
</svg>
