<svg xmlns="http://www.w3.org/2000/svg" width="24.058" height="24.062" viewBox="0 0 24.058 24.062">
  <path id="view" d="M23.731,7.678,19.046,2.993a1.127,1.127,0,0,0-.8-.329h-.766a9.727,9.727,0,0,0,2.068-6.015,9.773,9.773,0,0,0-9.774-9.774A9.773,9.773,0,0,0,0-3.351,9.773,9.773,0,0,0,9.774,6.424a9.727,9.727,0,0,0,6.015-2.068v.766a1.127,1.127,0,0,0,.329.8L20.8,10.606a1.123,1.123,0,0,0,1.593,0l1.33-1.33A1.133,1.133,0,0,0,23.731,7.678ZM9.774,2.664A6.011,6.011,0,0,1,3.759-3.351,6.011,6.011,0,0,1,9.774-9.366a6.011,6.011,0,0,1,6.015,6.015A6.011,6.011,0,0,1,9.774,2.664Z" transform="translate(0 13.125)" fill="#e7aa37"/>
</svg>
