<svg id="advance" xmlns="http://www.w3.org/2000/svg" xmlns:xlink="http://www.w3.org/1999/xlink" width="100.142" height="100.142" viewBox="0 0 100.142 100.142">
  <defs>
    <linearGradient id="linear-gradient" y1="0.505" x2="1" y2="0.505" gradientUnits="objectBoundingBox">
      <stop offset="0" stop-color="#d19753"/>
      <stop offset="0.61" stop-color="#c37f2e"/>
      <stop offset="1" stop-color="#aa6718"/>
    </linearGradient>
  </defs>
  <path id="Path_139" data-name="Path 139" d="M18.558,0H81.584a18.567,18.567,0,0,1,18.558,18.558V81.584a18.567,18.567,0,0,1-18.558,18.558H18.558A18.567,18.567,0,0,1,0,81.584V18.558A18.567,18.567,0,0,1,18.558,0Z" fill="url(#linear-gradient)"/>
  <g id="Group_72" data-name="Group 72" transform="translate(14.004 16.872)">
    <path id="Path_130" data-name="Path 130" d="M134.97,77.5H65.306A1.31,1.31,0,0,0,64,78.806h0v42.669a1.31,1.31,0,0,0,1.306,1.306H134.97a1.31,1.31,0,0,0,1.306-1.306V78.806A1.31,1.31,0,0,0,134.97,77.5ZM66.612,95.243a15.779,15.779,0,0,0,14.564-15.13H119.3a15.782,15.782,0,0,0,14.455,15.13v10.45A15.838,15.838,0,0,0,119.3,120.169H81.133a15.785,15.785,0,0,0-14.521-14.433Zm67.051-2.612a13.2,13.2,0,0,1-11.843-12.518h11.843Zm-55.1-12.518A13.178,13.178,0,0,1,66.612,92.63V80.112ZM66.612,108.348a13.205,13.205,0,0,1,11.908,11.821H66.612Zm67.051,11.821h-11.8a13.216,13.216,0,0,1,11.8-11.821Z" transform="translate(-64 -77.5)" fill="#fff"/>
    <path id="Path_131" data-name="Path 131" d="M189.946,152.436a11.168,11.168,0,1,0-11.146-11.19v.044A11.14,11.14,0,0,0,189.946,152.436Zm0-19.745a8.556,8.556,0,1,1-8.534,8.577v-.022A8.538,8.538,0,0,1,189.946,132.691Z" transform="translate(-153.808 -118.649)" fill="#fff"/>
    <path id="Path_132" data-name="Path 132" d="M156.82,326H104.006a1.306,1.306,0,1,0,0,2.612H156.82a1.306,1.306,0,1,0,0-2.612Z" transform="translate(-94.275 -271.902)" fill="#fff"/>
    <path id="Path_133" data-name="Path 133" d="M181.38,370.5H147.506a1.306,1.306,0,1,0,0,2.612h33.9a1.306,1.306,0,1,0-.022-2.612Z" transform="translate(-128.305 -306.714)" fill="#fff"/>
  </g>
</svg>
