<svg id="get-quoted" xmlns="http://www.w3.org/2000/svg" xmlns:xlink="http://www.w3.org/1999/xlink" width="100.142" height="100.142" viewBox="0 0 100.142 100.142">
  <defs>
    <linearGradient id="linear-gradient" y1="0.505" x2="1" y2="0.505" gradientUnits="objectBoundingBox">
      <stop offset="0" stop-color="#d19753"/>
      <stop offset="0.61" stop-color="#c37f2e"/>
      <stop offset="1" stop-color="#aa6718"/>
    </linearGradient>
  </defs>
  <path id="Path_139" data-name="Path 139" d="M18.558,0H81.584a18.567,18.567,0,0,1,18.558,18.558V81.584a18.567,18.567,0,0,1-18.558,18.558H18.558A18.567,18.567,0,0,1,0,81.584V18.558A18.567,18.567,0,0,1,18.558,0Z" fill="url(#linear-gradient)"/>
  <g id="Group_75" data-name="Group 75" transform="translate(17.618 17.375)">
    <path id="Path_152" data-name="Path 152" d="M144.355,110.78h-6.9a.881.881,0,0,0-.878.878v2.46h-1.559l-1.252-5.929a7.032,7.032,0,0,0-6.9-5.271H116.728V87.809a3.037,3.037,0,0,0-3.031-3.031h-7.972a3.044,3.044,0,0,0-3.031-2.833h-.813a3.707,3.707,0,0,0-7.2,0h-.791a3.021,3.021,0,0,0-3.009,2.9H82.953A3.041,3.041,0,0,0,79.9,87.875v40.65a3.046,3.046,0,0,0,3.053,3.053H83.9v9.531a3.524,3.524,0,0,0,3.514,3.514h6.3a3.524,3.524,0,0,0,3.514-3.514v-1.362h30.921v1.384a3.524,3.524,0,0,0,3.514,3.514h6.3a3.506,3.506,0,0,0,3.426-3.514v-8.784l-.856-6.478a7.847,7.847,0,0,0-4.436-6.413v-.132l-.725-3.382h1.186v1.12a.881.881,0,0,0,.878.878.278.278,0,0,0,.132-.022l6.9-1.142a.891.891,0,0,0,.747-.856v-4.282a.844.844,0,0,0-.856-.856ZM111.721,89.39v37.553H84.907V89.39h26.814Zm-19.062-4.5a1.275,1.275,0,0,1,1.274-1.274h1.559a.881.881,0,0,0,.878-.878,1.955,1.955,0,1,1,3.909,0h0a.881.881,0,0,0,.878.878H102.7a1.275,1.275,0,0,1,1.274,1.274v2.745H92.659ZM81.635,128.524V87.809a1.294,1.294,0,0,1,1.3-1.274H90.9v1.1H84.029a.881.881,0,0,0-.878.878v39.31a.881.881,0,0,0,.878.878H112.6a.881.881,0,0,0,.878-.878V88.512a.881.881,0,0,0-.878-.878h-6.874v-1.1h7.95a1.275,1.275,0,0,1,1.274,1.274v40.716a1.294,1.294,0,0,1-1.274,1.3H82.931a1.312,1.312,0,0,1-1.3-1.3Zm23.388,9.465V135.31h14.89v2.679Zm33.754-12.122.571,6.478v8.784a1.745,1.745,0,0,1-1.669,1.757H131.4a1.762,1.762,0,0,1-1.757-1.757v-1.384H132.3a.878.878,0,0,0,0-1.757H121.692v-3.514a.881.881,0,0,0-.878-.878H104.167a.881.881,0,0,0-.878.878v3.514H92.615a.878.878,0,1,0,0,1.757h2.679v1.384a1.762,1.762,0,0,1-1.757,1.757H87.3a1.762,1.762,0,0,1-1.757-1.757v-9.619h28.11a3.041,3.041,0,0,0,3.031-3.053v-8.148h15.922a6.141,6.141,0,0,1,6.171,5.556Zm-22.049-7.335V104.785h10.146a5.266,5.266,0,0,1,5.271,3.843l2.086,9.948Zm26.748-3.206-5.139.856v-3.514h5.139Z" transform="translate(-79.9 -79.116)" fill="#fff"/>
    <path id="Path_153" data-name="Path 153" d="M276.549,287.4a3.514,3.514,0,0,0,2.35,4.392,3.466,3.466,0,0,0,1.164.154h7.027c5.029,0,4.656-8.279-.4-7.664l-8.323,1.691A2.431,2.431,0,0,0,276.549,287.4Zm10.3-1.449c2.613-.154,2.657,4.216.11,4.173h-7.027c-1.186.132-2.877-1.867-1.318-2.526Z" transform="translate(-233.242 -239.202)" fill="#fff"/>
    <path id="Path_154" data-name="Path 154" d="M111.478,142.825h4.809a.881.881,0,0,0,.878-.878v-4.568a.881.881,0,0,0-.878-.878h-4.809a.881.881,0,0,0-.878.878v4.568A.881.881,0,0,0,111.478,142.825Zm.878-4.568h3.053v2.811h-3.053Z" transform="translate(-103.858 -123.898)" fill="#fff"/>
    <path id="Path_155" data-name="Path 155" d="M146.478,141.157h6.5a.878.878,0,0,0,0-1.757h-6.5a.878.878,0,0,0,0,1.757Z" transform="translate(-131.172 -126.161)" fill="#fff"/>
    <path id="Path_156" data-name="Path 156" d="M146.478,154.457H160.8a.878.878,0,0,0,0-1.757H146.478a.878.878,0,0,0,0,1.757Z" transform="translate(-131.172 -136.54)" fill="#fff"/>
    <path id="Path_157" data-name="Path 157" d="M111.478,183.525h4.809a.881.881,0,0,0,.878-.878v-4.568a.881.881,0,0,0-.878-.878h-4.809a.881.881,0,0,0-.878.878v4.568A.881.881,0,0,0,111.478,183.525Zm.878-4.568h3.053v2.811h-3.053Z" transform="translate(-103.858 -155.66)" fill="#fff"/>
    <path id="Path_158" data-name="Path 158" d="M146.478,181.757h6.5a.878.878,0,1,0,0-1.757h-6.5a.878.878,0,1,0,0,1.757Z" transform="translate(-131.172 -157.845)" fill="#fff"/>
    <path id="Path_159" data-name="Path 159" d="M146.478,195.157H160.8a.878.878,0,1,0,0-1.757H146.478a.878.878,0,1,0,0,1.757Z" transform="translate(-131.172 -168.302)" fill="#fff"/>
    <path id="Path_160" data-name="Path 160" d="M111.478,224.225h4.809a.881.881,0,0,0,.878-.878v-4.568a.881.881,0,0,0-.878-.878h-4.809a.881.881,0,0,0-.878.878v4.568A.881.881,0,0,0,111.478,224.225Zm.878-4.568h3.053v2.811h-3.053Z" transform="translate(-103.858 -187.422)" fill="#fff"/>
    <path id="Path_161" data-name="Path 161" d="M146.478,222.657h6.5a.878.878,0,0,0,0-1.757h-6.5a.881.881,0,0,0-.878.878A.9.9,0,0,0,146.478,222.657Z" transform="translate(-131.172 -189.763)" fill="#fff"/>
    <path id="Path_162" data-name="Path 162" d="M146.478,235.957H160.8a.878.878,0,0,0,0-1.757H146.478a.881.881,0,0,0-.878.878A.9.9,0,0,0,146.478,235.957Z" transform="translate(-131.172 -200.142)" fill="#fff"/>
    <path id="Path_163" data-name="Path 163" d="M111.478,264.925h4.809a.881.881,0,0,0,.878-.878v-4.568a.881.881,0,0,0-.878-.878h-4.809a.881.881,0,0,0-.878.878v4.568A.881.881,0,0,0,111.478,264.925Zm.878-4.568h3.053v2.811h-3.053Z" transform="translate(-103.858 -219.184)" fill="#fff"/>
    <path id="Path_164" data-name="Path 164" d="M146.478,263.357h6.5a.878.878,0,1,0,0-1.757h-6.5a.878.878,0,1,0,0,1.757Z" transform="translate(-131.172 -221.525)" fill="#fff"/>
    <path id="Path_165" data-name="Path 165" d="M146.478,276.557H160.8a.878.878,0,1,0,0-1.757H146.478a.878.878,0,1,0,0,1.757Z" transform="translate(-131.172 -231.826)" fill="#fff"/>
  </g>
</svg>
