<svg id="Refine" xmlns="http://www.w3.org/2000/svg" xmlns:xlink="http://www.w3.org/1999/xlink" width="100.142" height="100.142" viewBox="0 0 100.142 100.142">
  <defs>
    <linearGradient id="linear-gradient" y1="0.505" x2="1" y2="0.505" gradientUnits="objectBoundingBox">
      <stop offset="0" stop-color="#d19753"/>
      <stop offset="0.61" stop-color="#c37f2e"/>
      <stop offset="1" stop-color="#aa6718"/>
    </linearGradient>
  </defs>
  <path id="Path_139" data-name="Path 139" d="M18.558,0H81.584a18.567,18.567,0,0,1,18.558,18.558V81.584a18.567,18.567,0,0,1-18.558,18.558H18.558A18.567,18.567,0,0,1,0,81.584V18.558A18.567,18.567,0,0,1,18.558,0Z" fill="url(#linear-gradient)"/>
  <g id="Group_74" data-name="Group 74" transform="translate(17.113 10.154)">
    <path id="Path_140" data-name="Path 140" d="M148.535,201.886v-.219l-4.946-46.351a1.043,1.043,0,0,0-1.05-.919h-7.813a1.061,1.061,0,0,0-1.05.919l-3.02,25.583-4-17.814a1.053,1.053,0,0,0-1.029-.81H108.859a1.011,1.011,0,0,0-1.007.81L103.825,180.9l-3-25.583a1.061,1.061,0,0,0-1.05-.919H91.964a1.061,1.061,0,0,0-1.05.919L85.99,201.689A1.1,1.1,0,0,0,87,202.849h60.51a1.03,1.03,0,0,0,1.029-.963ZM92.949,156.52h5.931l3.5,30.572L99.3,200.748H88.2Zm8.535,44.228,8.185-36.328h15.078L133,200.748Zm33.636,0-3.086-13.656,3.589-30.572h5.931l4.749,44.228Z" transform="translate(-84.283 -130.762)" fill="#fff"/>
    <path id="Path_141" data-name="Path 141" d="M237,61.04a6.281,6.281,0,0,0,6.259,5.821,6.511,6.511,0,0,0,2.32-.438,5.886,5.886,0,0,0,8.688-7.944,5.831,5.831,0,0,0-4.377-1.9,5.63,5.63,0,0,0-1.6.219,6.374,6.374,0,0,0-3.983-2.385v-.635a7.353,7.353,0,1,0-7.375,7.331h.022Zm0-12.583a5.24,5.24,0,0,1,5.252,5.252,4.567,4.567,0,0,1-.175,1.335,1.084,1.084,0,0,0,.788,1.313.972.972,0,0,0,.438.022,4.233,4.233,0,0,1,3.633,2.145,1.054,1.054,0,0,0,1.357.438,3.78,3.78,0,1,1-1.554,5.58,1.039,1.039,0,0,0-1.379-.306,4.356,4.356,0,0,1-2.1.547,4.179,4.179,0,0,1-4.18-4.18v-.022c0-.481.153-1.007-.263-1.4s-1.226-.175-1.86-.219a5.252,5.252,0,1,1,0-10.5Z" transform="translate(-196.467 -46.4)" fill="#fff"/>
    <path id="Path_142" data-name="Path 142" d="M118.735,64.1a6.651,6.651,0,0,0,6.631,6.215,7.016,7.016,0,0,0,2.582-.481,6.191,6.191,0,1,0,4.53-10.483,6.757,6.757,0,0,0-1.751.241,6.787,6.787,0,0,0-4.289-2.582v-.744a7.769,7.769,0,1,0-7.769,7.769h.088Zm0-13.459a5.669,5.669,0,0,1,5.668,5.668,4.715,4.715,0,0,1-.175,1.357,1.084,1.084,0,0,0,.678,1.379,1.167,1.167,0,0,0,.547.044,4.607,4.607,0,0,1,3.983,2.32,1.059,1.059,0,0,0,1.379.438,3.712,3.712,0,0,1,1.751-.372,4.092,4.092,0,0,1,0,8.185h0a4.129,4.129,0,0,1-3.37-1.751,1.04,1.04,0,0,0-1.4-.306,4.553,4.553,0,0,1-6.828-3.939c.263-1.838-.678-1.86-2.167-1.663a5.668,5.668,0,1,1,0-11.336Z" transform="translate(-103.744 -48.04)" fill="#fff"/>
    <path id="Path_143" data-name="Path 143" d="M305.985,49.2a5.067,5.067,0,0,1,5.1,4.99v.044a1.05,1.05,0,1,0,2.1,0A7.15,7.15,0,0,0,306.05,47.1a1.05,1.05,0,1,0,0,2.1Z" transform="translate(-255.367 -46.947)" fill="#fff"/>
    <path id="Path_144" data-name="Path 144" d="M86.385,103.713a1.05,1.05,0,1,0,0-2.1A6.094,6.094,0,0,1,80.3,95.55a1.05,1.05,0,0,0-2.1,0h0A8.182,8.182,0,0,0,86.385,103.713Z" transform="translate(-78.2 -83.974)" fill="#fff"/>
    <path id="Path_145" data-name="Path 145" d="M193.05,54.3a3.513,3.513,0,0,1,3.589,3.414V57.8a1.037,1.037,0,0,0,1.05,1.05h0a1.037,1.037,0,0,0,1.05-1.05h0a5.689,5.689,0,0,0-5.69-5.6A1.028,1.028,0,0,0,192,53.207v.044a1.037,1.037,0,0,0,1.05,1.05Z" transform="translate(-167.096 -50.931)" fill="#fff"/>
    <path id="Path_146" data-name="Path 146" d="M185.2,157.35a1.05,1.05,0,0,0-2.1,0h0a4.987,4.987,0,0,0,4.99,4.99,1.05,1.05,0,0,0,0-2.1A2.886,2.886,0,0,1,185.2,157.35Z" transform="translate(-160.144 -132.249)" fill="#fff"/>
    <path id="Path_147" data-name="Path 147" d="M243,137.885a1.037,1.037,0,0,0,1.05,1.05,5.758,5.758,0,0,1,5.756,5.8v.022a1.05,1.05,0,0,0,2.1,0,7.864,7.864,0,0,0-7.856-7.856,1.039,1.039,0,0,0-1.05.985Z" transform="translate(-206.935 -117.095)" fill="#fff"/>
  </g>
</svg>
