<svg xmlns="http://www.w3.org/2000/svg" width="60.06" height="60.051" viewBox="0 0 60.06 60.051">
  <g id="catalytic-converter-color" transform="translate(0.046 -0.051)">
    <path id="Path_2" data-name="Path 2" d="M0,0H8.608V8.608H0Z" transform="translate(3.867 50.103) rotate(-45)" fill="#41567f"/>
    <path id="Path_3" data-name="Path 3" d="M0,0H3.519V16.156H0Z" transform="translate(-0.046 48.679) rotate(-45)" fill="#5d7198"/>
    <path id="Path_4" data-name="Path 4" d="M0,0H8.608V8.608H0Z" transform="translate(43.93 10.049) rotate(-45)" fill="#41567f"/>
    <path id="Path_5" data-name="Path 5" d="M0,0H8.608V4.3H0Z" transform="translate(46.973 13.092) rotate(-45)" fill="#293e65"/>
    <path id="Path_6" data-name="Path 6" d="M0,0H8.608V4.3H0Z" transform="translate(6.91 53.146) rotate(-45)" fill="#293e65"/>
    <path id="Path_7" data-name="Path 7" d="M0,0H3.519V16.156H0Z" transform="translate(46.104 2.539) rotate(-45)" fill="#5d7198"/>
    <path id="Path_8" data-name="Path 8" d="M0,0H3.519V8.078H0Z" transform="translate(51.815 8.251) rotate(-45)" fill="#41567f"/>
    <path id="Path_9" data-name="Path 9" d="M0,0H3.519V8.078H0Z" transform="translate(5.665 54.391) rotate(-45)" fill="#41567f"/>
    <path id="Path_10" data-name="Path 10" d="M95.555,70.719,70.719,95.555,57.384,84.542,46.372,71.207,71.207,46.372,84.542,57.384Z" transform="translate(-40.972 -40.887)" fill="#eff3f7"/>
    <g id="Group_2" data-name="Group 2" transform="translate(5.4 5.485)">
      <path id="Path_11" data-name="Path 11" d="M178.418,153.583l-24.835,24.835-13.335-11.012,27.158-27.158Z" transform="translate(-129.236 -129.236)" fill="#cddceb"/>
      <path id="Path_12" data-name="Path 12" d="M70.719,282.427,55.5,279.384,49.415,273.3,46.372,258.08Z" transform="translate(-46.372 -233.245)" fill="#cddceb"/>
      <path id="Path_13" data-name="Path 13" d="M282.427,70.719,258.08,46.372,273.3,49.415l6.087,6.087Z" transform="translate(-233.245 -46.372)" fill="#cddceb"/>
    </g>
    <path id="Path_14" data-name="Path 14" d="M104.346,361.855l12.174,12.174L101.3,370.985l-3.043-3.043Z" transform="translate(-86.773 -319.361)" fill="#afc8db"/>
    <path id="Path_15" data-name="Path 15" d="M374.029,116.52l-12.174-12.174,6.087-6.087,3.043,3.043Z" transform="translate(-319.447 -86.687)" fill="#afc8db"/>
    <path id="Path_16" data-name="Path 16" d="M0,0H3.519V20.376H0Z" transform="translate(15.329 30.324) rotate(-45)" fill="#cddceb"/>
    <path id="Path_17" data-name="Path 17" d="M0,0H3.519V20.376H0Z" transform="translate(21.537 24.117) rotate(-45)" fill="#cddceb"/>
    <path id="Path_18" data-name="Path 18" d="M0,0H3.519V20.376H0Z" transform="translate(27.746 17.91) rotate(-45)" fill="#cddceb"/>
    <path id="Path_19" data-name="Path 19" d="M0,0H3.519V10.188H0Z" transform="translate(34.949 25.113) rotate(-45)" fill="#afc8db"/>
    <path id="Path_20" data-name="Path 20" d="M0,0H3.519V10.188H0Z" transform="translate(28.74 31.321) rotate(-45)" fill="#afc8db"/>
    <path id="Path_21" data-name="Path 21" d="M0,0H3.519V10.188H0Z" transform="translate(22.531 37.528) rotate(-45)" fill="#afc8db"/>
  </g>
</svg>
