<svg id="hedge" xmlns="http://www.w3.org/2000/svg" xmlns:xlink="http://www.w3.org/1999/xlink" width="100.142" height="100.142" viewBox="0 0 100.142 100.142">
  <defs>
    <linearGradient id="linear-gradient" y1="0.505" x2="1" y2="0.505" gradientUnits="objectBoundingBox">
      <stop offset="0" stop-color="#d19753"/>
      <stop offset="0.61" stop-color="#c37f2e"/>
      <stop offset="1" stop-color="#aa6718"/>
    </linearGradient>
  </defs>
  <path id="Path_139" data-name="Path 139" d="M18.558,0H81.584a18.567,18.567,0,0,1,18.558,18.558V81.584a18.567,18.567,0,0,1-18.558,18.558H18.558A18.567,18.567,0,0,1,0,81.584V18.558A18.567,18.567,0,0,1,18.558,0Z" fill="url(#linear-gradient)"/>
  <g id="Group_73" data-name="Group 73" transform="translate(19.781 10.442)">
    <path id="Path_137" data-name="Path 137" d="M143.551,70.82H139.9V66.97a18.97,18.97,0,0,0-37.94,0V70.82H98.388A7.808,7.808,0,0,0,90.6,78.609v33.85a7.808,7.808,0,0,0,7.788,7.788h45.162a7.808,7.808,0,0,0,7.788-7.788V78.587a7.8,7.8,0,0,0-7.788-7.766ZM104.566,66.97a16.359,16.359,0,1,1,32.719,0V70.82H104.566Zm44.075,45.467a5.209,5.209,0,0,1-5.221,5.221H98.388a5.209,5.209,0,0,1-5.221-5.221V78.587a5.209,5.209,0,0,1,5.221-5.221h45.162a5.209,5.209,0,0,1,5.221,5.221Z" transform="translate(-90.6 -48)" fill="#fff"/>
    <path id="Path_138" data-name="Path 138" d="M203.238,216.2a7.385,7.385,0,0,0-1.305,14.663V237a1.305,1.305,0,1,0,2.611,0v-6.135a7.383,7.383,0,0,0-1.305-14.663Zm0,12.183a4.786,4.786,0,1,1,4.786-4.786A4.772,4.772,0,0,1,203.238,228.381Z" transform="translate(-172.912 -179.607)" fill="#fff"/>
  </g>
</svg>
